<?xml version="1.0" encoding="UTF-8"?>
<svg version="1.1" xmlns="http://www.w3.org/2000/svg" width="819" height="243">
<path d="M0 0 C270.27 0 540.54 0 819 0 C819 80.19 819 160.38 819 243 C548.73 243 278.46 243 0 243 C0 162.81 0 82.62 0 0 Z " fill="#137455" transform="translate(0,0)"/>
<path d="M0 0 C270.27 0 540.54 0 819 0 C819 80.19 819 160.38 819 243 C548.73 243 278.46 243 0 243 C0 162.81 0 82.62 0 0 Z M24 21 C22.35305569 23.57539167 21.14569775 26.17434131 20 29 C19.66010512 29.55071922 19.32021025 30.10143845 18.97001553 30.66884613 C17.6258681 33.89911863 17.73841709 36.66148668 17.72584534 40.15783691 C17.72060866 40.87966014 17.71537198 41.60148337 17.70997661 42.34518003 C17.69497152 44.76468125 17.69427134 47.18397107 17.69360352 49.60351562 C17.68598201 51.33831133 17.67755452 53.07310365 17.66838074 54.80789185 C17.64641935 59.52319286 17.63763384 64.23842902 17.63255429 68.95377541 C17.62891059 71.90273939 17.62267024 74.8516864 17.6155529 77.80064392 C17.59104612 88.0978978 17.57800527 98.39510127 17.57446289 108.69238281 C17.57083368 118.27401942 17.54098559 127.8553345 17.49905831 137.43687296 C17.46428798 145.67317752 17.44891323 153.90937597 17.44821686 162.14575338 C17.4474259 167.06017866 17.43877187 171.97427697 17.41021919 176.8886261 C17.38392516 181.51807696 17.3818962 186.14693256 17.39787483 190.77642441 C17.39968075 192.46781087 17.39307676 194.15923242 17.37705612 195.85054398 C17.27716563 207.08910731 18.35914668 217.10043497 25.3125 226.4375 C34.04166895 234.76066109 44.16513227 237.47570599 56.02305794 237.36914349 C56.98515077 237.37260502 57.94724359 237.37606655 58.93849075 237.37963298 C62.15122049 237.38755189 65.36349604 237.37413312 68.57620239 237.36076355 C70.90709662 237.36207229 73.23799042 237.36469997 75.56888187 237.36853105 C81.29546293 237.37453235 87.02190616 237.36661498 92.74847094 237.35280902 C99.61050408 237.33706249 106.47250449 237.33884502 113.3345513 237.34124239 C125.99725616 237.34517939 138.65991396 237.33517777 151.32260513 237.31719017 C163.85748655 237.29942983 176.39234837 237.28789046 188.92724228 237.28463173 C189.70706812 237.28442551 190.48689396 237.28421929 191.29035089 237.28400682 C195.25080657 237.2829918 199.21126227 237.28208766 203.17171799 237.2812262 C231.21247376 237.27492752 259.25320395 237.25472259 287.29394531 237.22631836 C314.5325507 237.19875854 341.77114908 237.17751089 369.00976562 237.16479492 C370.26952295 237.16420305 370.26952295 237.16420305 371.55472992 237.16359923 C379.98884783 237.15964362 388.42296579 237.15581618 396.8570838 237.15208265 C414.03785075 237.14447432 431.21861725 237.13601057 448.39938354 237.12702942 C449.58425959 237.12641161 449.58425959 237.12641161 450.79307253 237.12578133 C475.00146588 237.11311385 499.2098549 237.09682118 523.41824341 237.07695007 C524.1054511 237.0763874 524.79265879 237.07582473 525.50069096 237.075245 C553.33379596 237.05240076 581.16689754 237.0257179 609 237 C609 161.76 609 86.52 609 9 C565.98042528 8.94669886 565.98042528 8.94669886 522.96084595 8.8973999 C521.87323902 8.8962159 521.87323902 8.8962159 520.76366024 8.89500798 C496.35622726 8.86850898 471.94879278 8.84750569 447.54135132 8.83062744 C446.74482044 8.83007521 445.94828956 8.82952298 445.12762138 8.82895402 C427.8169109 8.81698243 410.50619995 8.80590169 393.19548831 8.79573868 C384.70633455 8.79074933 376.21718092 8.78556312 367.72802734 8.78027344 C366.88325397 8.7797504 366.0384806 8.77922737 365.16810803 8.77868848 C337.78596402 8.76164272 310.40385302 8.73159721 283.02172901 8.69481112 C254.88332723 8.65707767 226.74494373 8.63245751 198.60651708 8.62434004 C194.63227411 8.62318742 190.6580312 8.62188487 186.6837883 8.62049103 C185.90159936 8.62022134 185.11941042 8.61995164 184.31351878 8.61967378 C171.72180728 8.61494668 159.13015227 8.59639385 146.53846381 8.57267186 C133.8799349 8.54911897 121.221462 8.54012906 108.56291194 8.54599449 C101.70406004 8.54876922 94.84535949 8.54510787 87.98653793 8.5231781 C81.70805826 8.50373201 75.42985615 8.50271775 69.15136378 8.51640442 C66.87932451 8.51809635 64.60726802 8.51300603 62.33526273 8.50046727 C59.24647291 8.48441122 56.15868465 8.49306874 53.06991005 8.50780869 C51.74722597 8.4920466 51.74722597 8.4920466 50.39782101 8.4759661 C39.63391451 8.59201325 31.09750747 12.98808972 24 21 Z " fill="#0F6283" transform="translate(0,0)"/>
<path d="M0 0 C65.67 0 131.34 0 199 0 C199 75.24 199 150.48 199 228 C133.33 228 67.66 228 0 228 C0 152.76 0 77.52 0 0 Z " fill="#C3322D" transform="translate(410,9)"/>
<path d="M0 0 C1.67327271 0.00122722 3.34654748 0.00068817 5.01981926 -0.00146103 C9.47599259 -0.00235919 13.93173091 0.02072007 18.38780212 0.04898071 C22.57861611 0.07186462 26.76932758 0.0728388 30.96020508 0.07568359 C43.19341635 0.09662167 55.42654775 0.15246671 67.65966797 0.20410156 C95.00841797 0.28660156 122.35716797 0.36910156 150.53466797 0.45410156 C150.53466797 75.69410156 150.53466797 150.93410156 150.53466797 228.45410156 C123.68091797 228.51597656 96.82716797 228.57785156 69.15966797 228.64160156 C60.68875488 228.66891357 52.2178418 228.69622559 43.49023438 228.72436523 C33.12524414 228.73791504 33.12524414 228.73791504 28.26889038 228.74043274 C24.88593613 228.74322129 21.50312393 228.75443817 18.12020874 228.77082825 C13.79720464 228.79149369 9.47440537 228.7975588 5.15135646 228.79331839 C3.56973712 228.79420434 1.98811019 228.80010097 0.40653348 228.81174695 C-11.92985764 228.89832352 -22.86604251 227.91324558 -32.46533203 219.45410156 C-41.37007423 208.95506054 -41.91467185 198.51238446 -41.90112305 185.39648438 C-41.91010852 183.66109571 -41.92031857 181.92571303 -41.93165588 180.19033813 C-41.95808138 175.49177658 -41.96518624 170.79337909 -41.96710324 166.0947504 C-41.96924029 163.15446597 -41.97565373 160.21422282 -41.98359489 157.27394867 C-42.01132484 147.00259264 -42.0236035 136.73135316 -42.02124023 126.45996094 C-42.01943907 116.90770615 -42.05107842 107.35596027 -42.09847122 97.8038342 C-42.13778857 89.58442092 -42.15378811 81.36517335 -42.15187401 73.14566684 C-42.15111164 68.24466712 -42.1595206 63.34411988 -42.19140816 58.44321442 C-42.22060595 53.8300282 -42.22058558 49.21772219 -42.19885826 44.60450363 C-42.1957396 42.91956409 -42.20269681 41.23456825 -42.22093964 39.54972458 C-42.3353021 28.24805311 -41.12542371 18.78899306 -33.26505375 9.99150467 C-23.68316966 0.46720669 -12.86207696 -0.12395721 0 0 Z " fill="#EE7E28" transform="translate(59.46533203125,8.5458984375)"/>
<path d="M0 0 C270.27 0 540.54 0 819 0 C819 80.19 819 160.38 819 243 C548.73 243 278.46 243 0 243 C0 162.81 0 82.62 0 0 Z M24 21 C22.35305569 23.57539167 21.14569775 26.17434131 20 29 C19.66010512 29.55071922 19.32021025 30.10143845 18.97001553 30.66884613 C17.6258681 33.89911863 17.73841709 36.66148668 17.72584534 40.15783691 C17.72060866 40.87966014 17.71537198 41.60148337 17.70997661 42.34518003 C17.69497152 44.76468125 17.69427134 47.18397107 17.69360352 49.60351562 C17.68598201 51.33831133 17.67755452 53.07310365 17.66838074 54.80789185 C17.64641935 59.52319286 17.63763384 64.23842902 17.63255429 68.95377541 C17.62891059 71.90273939 17.62267024 74.8516864 17.6155529 77.80064392 C17.59104612 88.0978978 17.57800527 98.39510127 17.57446289 108.69238281 C17.57083368 118.27401942 17.54098559 127.8553345 17.49905831 137.43687296 C17.46428798 145.67317752 17.44891323 153.90937597 17.44821686 162.14575338 C17.4474259 167.06017866 17.43877187 171.97427697 17.41021919 176.8886261 C17.38392516 181.51807696 17.3818962 186.14693256 17.39787483 190.77642441 C17.39968075 192.46781087 17.39307676 194.15923242 17.37705612 195.85054398 C17.27716563 207.08910731 18.35914668 217.10043497 25.3125 226.4375 C34.90348616 235.58239378 45.66238211 237.45715629 58.5563736 237.37752342 C59.79236374 237.38188374 61.02835389 237.38624407 62.30179828 237.39073652 C65.72186024 237.39977603 69.14142482 237.39545238 72.5614519 237.38540266 C76.28621115 237.37777378 80.01093205 237.38757973 83.73568583 237.39513266 C90.26027982 237.40595802 96.78479933 237.40564501 103.30939674 237.39799118 C113.01171578 237.38664059 122.71397201 237.39244658 132.41629063 237.4016161 C149.74491362 237.41741352 167.07350343 237.41604407 184.40212958 237.40737936 C199.56665867 237.39983394 214.73117559 237.39786201 229.89570618 237.4014473 C231.40430937 237.40179103 231.40430937 237.40179103 232.9433894 237.40214171 C237.02595455 237.40307572 241.10851969 237.40403091 245.19108483 237.405021 C283.49194379 237.41419886 321.79278162 237.40587623 360.09363732 237.38973031 C394.12477345 237.3754934 428.15587589 237.37676728 462.18701172 237.39111328 C500.41763307 237.40717571 538.64823574 237.41354798 576.87886 237.40427649 C580.9540046 237.40331433 585.02914921 237.40237581 589.10429382 237.4014473 C590.10770499 237.40121006 591.11111615 237.40097283 592.14493372 237.40072841 C607.30026631 237.39731539 622.45558541 237.40130795 637.61091614 237.40888596 C654.84247729 237.41745915 672.07400006 237.41532902 689.30555642 237.39904372 C698.95052367 237.3902292 708.59540783 237.389668 718.24037294 237.40098225 C724.68185304 237.40770551 731.12326646 237.40352974 737.56473668 237.39046794 C741.23548066 237.38332773 744.90605944 237.38089946 748.57679826 237.39168589 C752.53249565 237.40319113 756.48793257 237.39147831 760.4436264 237.37752342 C761.58085693 237.38454692 762.71808745 237.39157042 763.88977951 237.39880675 C774.45932186 237.32405839 783.93962049 235.16478179 792 228 C797.93873018 220.92792437 801.23840272 214.97992979 801.28088379 205.64598083 C801.28682603 204.91513608 801.29276828 204.18429132 801.29889059 203.43129975 C801.31620549 200.98727484 801.31927599 198.54344656 801.32226562 196.09936523 C801.33152643 194.34471725 801.34157635 192.59007327 801.35235596 190.83543396 C801.37857093 186.07061496 801.39148811 181.3058523 801.40037727 176.54097247 C801.40624589 173.56067893 801.414457 170.58040066 801.42338562 167.60011482 C801.45073082 158.26583919 801.47006473 148.9315986 801.4777894 139.59728569 C801.48674105 128.84066792 801.52179361 118.08455969 801.57979059 107.32809681 C801.62311335 99.00260147 801.64320279 90.67724898 801.64587164 82.35164219 C801.64796198 77.38462885 801.65965194 72.41809462 801.69551086 67.45120049 C801.7286264 62.77324227 801.73271045 58.09611923 801.71523285 53.4180851 C801.71370006 51.70895007 801.72227226 49.99976873 801.74214935 48.2907486 C801.86441725 37.11532234 800.85164449 27.4653398 792.98984528 18.77902889 C786.93315632 13.00105643 779.38586951 8.87804354 770.93889374 8.87119883 C769.35658208 8.86629054 769.35658208 8.86629054 767.74230453 8.86128309 C766.57705884 8.86276672 765.41181315 8.86425034 764.21125698 8.86577892 C762.35419176 8.86225058 762.35419176 8.86225058 760.45961007 8.85865095 C757.00131556 8.85311382 753.54307165 8.85209075 750.0847762 8.85292836 C746.33057673 8.85275921 742.57638565 8.84685703 738.82219034 8.8416875 C731.36630953 8.83234741 723.91043465 8.82843709 716.45454871 8.82616853 C707.52785064 8.82321012 698.60116048 8.81451483 689.67446656 8.80575425 C668.09557875 8.78489393 646.51668957 8.77443753 624.93779403 8.76562465 C614.73271591 8.76142037 604.52763838 8.75619808 594.32256076 8.75094012 C559.40095208 8.73304848 524.47934325 8.71805174 489.55773067 8.71061993 C487.36466192 8.71014517 485.17159317 8.70966928 482.97852442 8.70919226 C481.89094049 8.70895589 480.80335656 8.70871951 479.68281554 8.70847597 C474.17241413 8.70727475 468.66201273 8.70605931 463.15161133 8.70483398 C462.05804788 8.70459383 460.96448444 8.70435368 459.83778271 8.70410626 C424.37588733 8.69621202 388.91402538 8.67277835 353.4521446 8.64027804 C315.97477188 8.60599317 278.49741874 8.58627002 241.02003008 8.58297569 C236.90714267 8.58255813 232.79425527 8.58207857 228.68136787 8.58155251 C227.6686323 8.58142931 226.65589673 8.58130612 225.6124722 8.5811792 C209.30253187 8.57884547 192.9926303 8.56317587 176.68270379 8.54271066 C160.29312944 8.52247154 143.90360175 8.51696628 127.51401722 8.52648129 C117.77351833 8.53170374 108.03317458 8.52578371 98.29269798 8.50394662 C91.78730169 8.49046278 85.28201248 8.49149411 78.77661519 8.50434858 C75.06919639 8.51126135 71.3620747 8.51186006 67.65468215 8.49478849 C63.65943812 8.47654134 59.6648855 8.48928368 55.669631 8.50501537 C54.52077347 8.49479317 53.37191595 8.48457096 52.18824455 8.47403899 C40.53461682 8.57450759 31.7866236 12.21019176 24 21 Z " fill="#F6F4F0" transform="translate(0,0)"/>
<path d="M0 0 C1.62228516 -0.01836914 1.62228516 -0.01836914 3.27734375 -0.03710938 C25.35714547 -0.07706077 44.17375736 8.9102307 59.9296875 24.2109375 C76.23686317 40.87189596 83.02926191 62.13074412 82.99707031 84.9519043 C82.55625571 107.97371549 71.64839559 128.72405475 55.4296875 144.63720703 C47.63103969 151.83508692 38.675854 157.42886904 28.75 161.1875 C27.54537109 161.64576172 27.54537109 161.64576172 26.31640625 162.11328125 C8.58466466 168.42255187 -14.46604315 167.32394907 -31.3762207 159.47119141 C-38.27704209 156.1124056 -44.55398091 152.37840042 -50.25 147.1875 C-51.46042969 146.11435547 -51.46042969 146.11435547 -52.6953125 145.01953125 C-69.45856511 129.30718591 -78.29898143 107.55948214 -79.5234375 84.8203125 C-80.21714483 62.97816654 -73.47612707 43.83582137 -59.25 27.1875 C-58.80527344 26.5996875 -58.36054688 26.011875 -57.90234375 25.40625 C-44.16933949 7.78956815 -21.49837403 0.01263124 0 0 Z " fill="#1D2D34" transform="translate(308.25,41.8125)"/>
<path d="M0 0 C13.96884096 11.0772396 26.95325634 27.82913229 29.078125 46.0703125 C29.160625 47.1428125 29.243125 48.2153125 29.328125 49.3203125 C29.658125 49.6503125 29.988125 49.9803125 30.328125 50.3203125 C32.23293015 78.44574583 28.02305716 101.26683132 9.328125 123.3203125 C8.69261719 124.07054687 8.05710937 124.82078125 7.40234375 125.59375 C-6.05796675 140.17815496 -26.55261007 148.44456772 -46.05859375 149.63671875 C-66.85400209 150.43084761 -86.28147162 143.4730261 -101.671875 129.3203125 C-102.45046875 128.62164062 -103.2290625 127.92296875 -104.03125 127.203125 C-117.14555223 114.83695411 -123.70615087 98.56612819 -127.671875 81.3203125 C-127.86652344 80.54429687 -128.06117188 79.76828125 -128.26171875 78.96875 C-131.51587335 57.95620889 -126.59233005 35.61584322 -114.71875 18.015625 C-101.62887528 0.77895791 -84.05745005 -11.58199667 -62.44921875 -15.22265625 C-39.68491247 -17.97697252 -18.50240385 -13.91195946 0 0 Z " fill="#137355" transform="translate(560.671875,57.6796875)"/>
<path d="M0 0 C2.43054138 1.88422703 4.72010783 3.8467359 6.9921875 5.91796875 C7.66121094 6.48386719 8.33023438 7.04976562 9.01953125 7.6328125 C22.49141609 19.82420135 31.01990062 39.07962378 32.19775391 57.05517578 C32.29558271 60.47015352 32.31426234 63.87666707 32.3046875 67.29296875 C32.32080078 68.43507813 32.33691406 69.5771875 32.35351562 70.75390625 C32.36576041 92.30473276 22.71118485 111.80451728 7.87109375 127.12890625 C-8.18409176 143.04917423 -27.9824258 149.23046875 -50.03125 149.23046875 C-69.3122578 148.96301467 -85.74892055 141.82705165 -100.0078125 128.91796875 C-100.78769531 128.21929687 -101.56757812 127.520625 -102.37109375 126.80078125 C-108.03389351 121.45205273 -112.17114198 115.67781682 -116.0078125 108.91796875 C-116.70197266 107.69787109 -116.70197266 107.69787109 -117.41015625 106.453125 C-120.90611803 99.89686842 -122.99916891 93.04909208 -125.0078125 85.91796875 C-125.36875 84.84804687 -125.7296875 83.778125 -126.1015625 82.67578125 C-127.25755204 77.88241082 -127.3497467 73.39384717 -127.3203125 68.48046875 C-127.31539795 67.51125488 -127.3104834 66.54204102 -127.30541992 65.54345703 C-127.09578967 52.52058088 -124.85557673 40.67505263 -119.0078125 28.91796875 C-118.47671875 27.809375 -117.945625 26.70078125 -117.3984375 25.55859375 C-107.88719234 7.26773767 -91.60667564 -5.86316122 -72.0078125 -12.08203125 C-71.0384375 -12.40171875 -70.0690625 -12.72140625 -69.0703125 -13.05078125 C-44.8675793 -19.85779996 -20.24599975 -14.01443879 0 0 Z " fill="#202F35" transform="translate(750.0078125,57.08203125)"/>
<path d="M0 0 C1.34626607 1.15171895 2.67986782 2.31841635 4 3.5 C4.74378906 4.10328125 5.48757812 4.7065625 6.25390625 5.328125 C21.43820342 17.9688597 30.44305948 37.07203141 33 56.5 C34.62317136 80.4023255 28.84145553 104.02408997 12.88671875 122.51196289 C0.01624802 136.77715032 -17.87510517 147.47144595 -37.36572266 148.64208984 C-59.36510267 149.46617767 -79.11484886 145.65966125 -96 130.5 C-96.80953125 129.78328125 -97.6190625 129.0665625 -98.453125 128.328125 C-114.91535128 112.87585125 -123.63864296 91.64408522 -124.40209961 69.1862793 C-124.71676966 46.41935861 -117.00879205 25.50200528 -101.2890625 8.8359375 C-100.53367187 8.06507812 -99.77828125 7.29421875 -99 6.5 C-98.34773438 5.81164062 -97.69546875 5.12328125 -97.0234375 4.4140625 C-71.53020099 -20.48859711 -27.87811997 -21.17571482 0 0 Z " fill="#202D36" transform="translate(162,57.5)"/>
<path d="M0 0 C1.94140625 1.46484375 1.94140625 1.46484375 2.94140625 4.46484375 C2.01936916 6.83006933 1.0244166 9.16886182 -0.05859375 11.46484375 C-0.63609375 11.13484375 -1.21359375 10.80484375 -1.80859375 10.46484375 C-4.25743237 9.19408477 -4.25743237 9.19408477 -8.05859375 9.46484375 C-8.71859375 9.46484375 -9.37859375 9.46484375 -10.05859375 9.46484375 C-8.13467726 14.77895869 -8.13467726 14.77895869 -4.05859375 18.46484375 C-4.58127841 21.22760552 -5.16728962 23.79093135 -6.05859375 26.46484375 C-6.61546875 26.11421875 -7.17234375 25.76359375 -7.74609375 25.40234375 C-10.59746158 24.24638382 -12.14376597 24.65516937 -15.05859375 25.46484375 C-14.93802779 27.83023427 -14.93802779 27.83023427 -14.05859375 30.46484375 C-13.19234375 31.02171875 -12.32609375 31.57859375 -11.43359375 32.15234375 C-9.05859375 34.46484375 -9.05859375 34.46484375 -8.953125 36.9375 C-9.22089308 39.47594138 -9.5755885 41.95895511 -10.05859375 44.46484375 C-11.14140625 43.96984375 -11.14140625 43.96984375 -12.24609375 43.46484375 C-15.07556802 42.45880846 -17.08754841 42.29506973 -20.05859375 42.46484375 C-20.11608932 45.38114488 -20.11608932 45.38114488 -19.05859375 48.46484375 C-16.78414941 49.95744785 -14.67897676 50.60726386 -12.05859375 51.46484375 C-12.05859375 54.10484375 -12.05859375 56.74484375 -12.05859375 59.46484375 C-14.69859375 59.46484375 -17.33859375 59.46484375 -20.05859375 59.46484375 C-20.11026902 61.88751461 -20.11026902 61.88751461 -19.05859375 64.46484375 C-15.58552047 66.3346812 -15.58552047 66.3346812 -12.05859375 67.46484375 C-12.05859375 70.43484375 -12.05859375 73.40484375 -12.05859375 76.46484375 C-15.02859375 76.95984375 -15.02859375 76.95984375 -18.05859375 77.46484375 C-18.05859375 79.11484375 -18.05859375 80.76484375 -18.05859375 82.46484375 C-15.08859375 83.12484375 -12.11859375 83.78484375 -9.05859375 84.46484375 C-8.39859375 87.10484375 -7.73859375 89.74484375 -7.05859375 92.46484375 C-9.53359375 93.45484375 -9.53359375 93.45484375 -12.05859375 94.46484375 C-12.05859375 96.11484375 -12.05859375 97.76484375 -12.05859375 99.46484375 C-9.41859375 99.79484375 -6.77859375 100.12484375 -4.05859375 100.46484375 C-3.72859375 102.44484375 -3.39859375 104.42484375 -3.05859375 106.46484375 C-3.71859375 106.85671875 -4.37859375 107.24859375 -5.05859375 107.65234375 C-7.35026042 109.31901042 -7.35026042 109.31901042 -7.30859375 112.15234375 C-7.22609375 112.91546875 -7.14359375 113.67859375 -7.05859375 114.46484375 C-3.73324618 115.57329294 -1.436768 115.30938731 1.94140625 114.46484375 C4.95967109 118.69041453 4.95967109 118.69041453 4.8828125 121.94921875 C3.94140625 124.46484375 3.94140625 124.46484375 1.52734375 126.125 C-16.49003696 133.99390472 -35.01530652 138.26337541 -54.1171875 131.359375 C-65.08604459 126.99599855 -65.08604459 126.99599855 -69.05859375 123.46484375 C-69.79179706 119.70717678 -69.21686537 118.70225117 -67.05859375 115.46484375 C-63.09859375 115.95984375 -63.09859375 115.95984375 -59.05859375 116.46484375 C-58.39859375 114.48484375 -57.73859375 112.50484375 -57.05859375 110.46484375 C-57.98671875 110.00078125 -57.98671875 110.00078125 -58.93359375 109.52734375 C-60.30859375 108.83984375 -61.68359375 108.15234375 -63.05859375 107.46484375 C-62.39859375 105.15484375 -61.73859375 102.84484375 -61.05859375 100.46484375 C-56.60359375 99.96984375 -56.60359375 99.96984375 -52.05859375 99.46484375 C-51.72859375 97.81484375 -51.39859375 96.16484375 -51.05859375 94.46484375 C-53.36859375 93.80484375 -55.67859375 93.14484375 -58.05859375 92.46484375 C-57.72859375 89.49484375 -57.39859375 86.52484375 -57.05859375 83.46484375 C-54.41859375 83.13484375 -51.77859375 82.80484375 -49.05859375 82.46484375 C-49.05859375 80.81484375 -49.05859375 79.16484375 -49.05859375 77.46484375 C-51.03859375 77.13484375 -53.01859375 76.80484375 -55.05859375 76.46484375 C-54.72859375 73.49484375 -54.39859375 70.52484375 -54.05859375 67.46484375 C-51.08859375 66.96984375 -51.08859375 66.96984375 -48.05859375 66.46484375 C-48.05859375 64.48484375 -48.05859375 62.50484375 -48.05859375 60.46484375 C-50.03859375 60.46484375 -52.01859375 60.46484375 -54.05859375 60.46484375 C-54.41333926 57.39038264 -54.5955823 54.52357266 -54.05859375 51.46484375 C-51.05859375 48.90234375 -51.05859375 48.90234375 -48.05859375 47.46484375 C-48.55359375 44.98984375 -48.55359375 44.98984375 -49.05859375 42.46484375 C-52.52359375 42.95984375 -52.52359375 42.95984375 -56.05859375 43.46484375 C-56.38859375 40.16484375 -56.71859375 36.86484375 -57.05859375 33.46484375 C-56.23359375 33.09359375 -55.40859375 32.72234375 -54.55859375 32.33984375 C-53.32109375 31.41171875 -53.32109375 31.41171875 -52.05859375 30.46484375 C-51.64112767 27.33849166 -51.64112767 27.33849166 -52.05859375 24.46484375 C-54.69859375 24.79484375 -57.33859375 25.12484375 -60.05859375 25.46484375 C-61.38649344 23.27771485 -62.10612061 21.98763919 -61.87109375 19.40234375 C-61.05859375 17.46484375 -61.05859375 17.46484375 -59.55859375 16.02734375 C-57.59286297 13.97970752 -57.43190814 12.22737026 -57.05859375 9.46484375 C-57.71859375 9.46484375 -58.37859375 9.46484375 -59.05859375 9.46484375 C-59.05859375 8.80484375 -59.05859375 8.14484375 -59.05859375 7.46484375 C-59.84234375 7.95984375 -60.62609375 8.45484375 -61.43359375 8.96484375 C-64.05859375 10.46484375 -64.05859375 10.46484375 -66.05859375 10.46484375 C-67.67848437 6.92133302 -68.16273643 4.33764956 -68.05859375 0.46484375 C-45.7090548 -10.87255231 -22.21584077 -12.48192544 0 0 Z " fill="#F5F2EF" transform="translate(735.05859375,61.53515625)"/>
<path d="M0 0 C13.96884096 11.0772396 26.95325634 27.82913229 29.078125 46.0703125 C29.160625 47.1428125 29.243125 48.2153125 29.328125 49.3203125 C29.658125 49.6503125 29.988125 49.9803125 30.328125 50.3203125 C32.23293015 78.44574583 28.02305716 101.26683132 9.328125 123.3203125 C8.69261719 124.07054687 8.05710937 124.82078125 7.40234375 125.59375 C-6.05796675 140.17815496 -26.55261007 148.44456772 -46.05859375 149.63671875 C-66.85400209 150.43084761 -86.28147162 143.4730261 -101.671875 129.3203125 C-102.45046875 128.62164062 -103.2290625 127.92296875 -104.03125 127.203125 C-117.14555223 114.83695411 -123.70615087 98.56612819 -127.671875 81.3203125 C-127.86652344 80.54429687 -128.06117188 79.76828125 -128.26171875 78.96875 C-131.51587335 57.95620889 -126.59233005 35.61584322 -114.71875 18.015625 C-101.62887528 0.77895791 -84.05745005 -11.58199667 -62.44921875 -15.22265625 C-39.68491247 -17.97697252 -18.50240385 -13.91195946 0 0 Z M-74.671875 -0.6796875 C-75.74050781 -0.2053125 -76.80914062 0.2690625 -77.91015625 0.7578125 C-86.5497325 4.98115412 -92.92130124 10.59035118 -99.671875 17.3203125 C-100.83009766 18.41279297 -100.83009766 18.41279297 -102.01171875 19.52734375 C-103.89834434 21.15764382 -103.89834434 21.15764382 -103.671875 23.3203125 C-104.331875 23.3203125 -104.991875 23.3203125 -105.671875 23.3203125 C-107.98779522 26.54145407 -107.98779522 26.54145407 -108.671875 30.3203125 C-109.331875 30.3203125 -109.991875 30.3203125 -110.671875 30.3203125 C-111.105 31.62742187 -111.105 31.62742187 -111.546875 32.9609375 C-112.24250068 35.03815307 -112.94871335 37.11189717 -113.671875 39.1796875 C-121.97112929 63.16971943 -118.48626311 82.55093207 -108.671875 105.3203125 C-108.011875 105.3203125 -107.351875 105.3203125 -106.671875 105.3203125 C-106.2078125 106.4959375 -106.2078125 106.4959375 -105.734375 107.6953125 C-104.74312462 110.24361378 -104.74312462 110.24361378 -103.671875 112.3203125 C-103.011875 112.3203125 -102.351875 112.3203125 -101.671875 112.3203125 C-101.40117187 112.91328125 -101.13046875 113.50625 -100.8515625 114.1171875 C-94.59537619 125.80092616 -79.70021984 132.62043557 -67.671875 136.3203125 C-49.78038967 141.32364149 -32.24368 138.29958732 -15.859375 130.1953125 C1.91681162 119.89799591 13.12779705 103.15633643 18.75 83.609375 C23.28444434 65.65542648 20.57103767 44.90541324 11.36328125 28.90625 C7.48220928 22.36328648 7.48220928 22.36328648 1.328125 18.3203125 C1.328125 17.3303125 1.328125 16.3403125 1.328125 15.3203125 C-0.30122741 13.94162969 -1.96937107 12.60757157 -3.671875 11.3203125 C-4.166875 10.3303125 -4.166875 10.3303125 -4.671875 9.3203125 C-25.21598137 -3.46268702 -51.37595097 -11.47614333 -74.671875 -0.6796875 Z " fill="#1E2D34" transform="translate(560.671875,57.6796875)"/>
<path d="M0 0 C0.495 1.485 0.495 1.485 1 3 C1.58910156 3.26425781 2.17820312 3.52851562 2.78515625 3.80078125 C5.9762247 5.52857316 7.54166798 8.19782494 9.4375 11.1875 C9.83001953 11.80391357 10.22253906 12.42032715 10.62695312 13.05541992 C16.11860976 22.05651746 19.763387 32.3997377 20 43 C20.02433105 43.63808594 20.04866211 44.27617188 20.07373047 44.93359375 C20.76274977 64.14054171 16.27083266 80.15837626 5 96 C4.34 96.66 3.68 97.32 3 98 C-4.40442713 97.8457411 -10.97512839 94.74280963 -16.4296875 89.796875 C-27.31917105 78.13742797 -32.56282124 66.49728924 -32.41748047 50.48144531 C-31.83062651 33.85022571 -24.32259783 21.54106943 -12.5390625 10.1953125 C-9.4425902 7.51805491 -6.2144883 5.27202808 -2.71484375 3.15625 C-0.84515756 2.09996849 -0.84515756 2.09996849 0 0 Z " fill="#137355" transform="translate(561,73)"/>
<path d="M0 0 C3.76982081 1.04136184 6.71505697 2.73649608 9.92578125 4.89453125 C10.84206299 5.50010864 10.84206299 5.50010864 11.77685547 6.11791992 C17.57941711 10.01530968 23.02084192 14.23850935 28.23828125 18.89453125 C28.73602051 19.33635742 29.23375977 19.77818359 29.74658203 20.23339844 C39.56559766 29.07697441 47.31684057 38.44444651 49.23828125 51.89453125 C23.82828125 51.89453125 -1.58171875 51.89453125 -27.76171875 51.89453125 C-26.12526984 33.89359324 -20.76777729 19.51586273 -8.76171875 5.89453125 C-8.22289063 5.23839844 -7.6840625 4.58226563 -7.12890625 3.90625 C-3.57857701 -0.13666419 -3.57857701 -0.13666419 0 0 Z " fill="#ED7E26" transform="translate(75.76171875,68.10546875)"/>
<path d="M0 0 C25.41 0 50.82 0 77 0 C74.86469318 12.81184092 67.92710734 21.1609064 59 30 C58.29101562 30.73089844 57.58203125 31.46179688 56.8515625 32.21484375 C50.21817376 38.63220259 42.11625733 42.75831624 34 47 C32.89914063 47.57878906 31.79828125 48.15757812 30.6640625 48.75390625 C28 50 28 50 25.5625 50.125 C15.42482508 45.67431345 9.32921261 32.72496731 5.1328125 23.109375 C2.47392133 15.81117718 0 7.78523093 0 0 Z " fill="#ED7E26" transform="translate(48,130)"/>
<path d="M0 0 C5.13064498 0.44809126 7.6023195 4.60551765 10.75390625 8.25390625 C16.60888555 15.41225485 20.16448541 22.204118 23 31 C23.25225342 31.62100586 23.50450684 32.24201172 23.7644043 32.88183594 C26.36776004 39.64359797 26.50037076 46.06027948 26.4375 53.25 C26.42992676 54.45277588 26.42235352 55.65555176 26.41455078 56.89477539 C26.25789362 65.31023802 25.58437428 72.29693479 22 80 C21.56429687 81.01578125 21.12859375 82.0315625 20.6796875 83.078125 C16.7064932 91.71927982 11.16094078 99.67306437 4 106 C3.01 106 2.02 106 1 106 C0.01 103.03 0.01 103.03 -1 100 C0.98 99.01 0.98 99.01 3 98 C2.505 95.03 2.505 95.03 2 92 C-0.31 92 -2.62 92 -5 92 C-5.495 89.525 -5.495 89.525 -6 87 C-5.175 86.62875 -4.35 86.2575 -3.5 85.875 C-2.675 85.25625 -1.85 84.6375 -1 84 C-0.58253392 80.87364791 -0.58253392 80.87364791 -1 78 C-3.64 78.33 -6.28 78.66 -9 79 C-9.495 76.525 -9.495 76.525 -10 74 C-6.04 73.01 -6.04 73.01 -2 72 C-2.495 69.525 -2.495 69.525 -3 67 C-5.97 67 -8.94 67 -12 67 C-12 64.36 -12 61.72 -12 59 C-9.36 59 -6.72 59 -4 59 C-4.33 56.69 -4.66 54.38 -5 52 C-8.96 51.505 -8.96 51.505 -13 51 C-13 49.02 -13 47.04 -13 45 C-10.36 44.67 -7.72 44.34 -5 44 C-4.67 41.69 -4.34 39.38 -4 37 C-6.64 37 -9.28 37 -12 37 C-11.67 34.36 -11.34 31.72 -11 29 C-8.03 28.67 -5.06 28.34 -2 28 C-2 26.35 -2 24.7 -2 23 C-3.98 22.67 -5.96 22.34 -8 22 C-7.125 16.25 -7.125 16.25 -6 14 C-3.35139573 13.40644386 -0.70802678 13.25790731 2 13 C2.66 11.35 3.32 9.7 4 8 C2.02 7.34 0.04 6.68 -2 6 C-1.125 1.125 -1.125 1.125 0 0 Z " fill="#F3F1EE" transform="translate(746,71)"/>
<path d="M0 0 C0.33 1.98 0.66 3.96 1 6 C-0.65 6.66 -2.3 7.32 -4 8 C-3.67 9.98 -3.34 11.96 -3 14 C-0.03 14.33 2.94 14.66 6 15 C6.33 17.31 6.66 19.62 7 22 C5.02 22.33 3.04 22.66 1 23 C1.33 24.98 1.66 26.96 2 29 C4.64 29.33 7.28 29.66 10 30 C10 32.64 10 35.28 10 38 C8.02 38.66 6.04 39.32 4 40 C4 41.98 4 43.96 4 46 C6.64 46 9.28 46 12 46 C12 47.98 12 49.96 12 52 C9.69 51.67 7.38 51.34 5 51 C4.67 53.31 4.34 55.62 4 58 C4.78375 58.144375 5.5675 58.28875 6.375 58.4375 C9 59 9 59 11 60 C11 62.31 11 64.62 11 67 C8.36 67 5.72 67 3 67 C3 68.98 3 70.96 3 73 C4.98 73.66 6.96 74.32 9 75 C8.67 76.98 8.34 78.96 8 81 C6.88625 80.79375 5.7725 80.5875 4.625 80.375 C2.830625 80.189375 2.830625 80.189375 1 80 C0.01 80.99 0.01 80.99 -1 82 C-1.07272562 84.55460214 -1.07272562 84.55460214 0 87 C2.47636012 88.37466625 2.47636012 88.37466625 5 89 C4.67 90.98 4.34 92.96 4 95 C2.02 94.34 0.04 93.68 -2 93 C-2.99 93.99 -2.99 93.99 -4 95 C-3.90888062 97.53951544 -3.90888062 97.53951544 -3 100 C-1.515 100.99 -1.515 100.99 0 102 C-0.33 103.65 -0.66 105.3 -1 107 C-4.92176822 106.47073482 -6.34106473 104.86348619 -8.75 101.8125 C-22.96231941 83.11905749 -27.24453168 64.38315433 -25 41 C-24.04516091 35.36797538 -22.2418561 30.23717348 -20 25 C-19.60425781 24.05125 -19.20851563 23.1025 -18.80078125 22.125 C-16.04421648 16.11733724 -7.45484833 0 0 0 Z " fill="#F3F1EE" transform="translate(659,70)"/>
<path d="M0 0 C0.33 0 0.66 0 1 0 C1.495 2.97 1.495 2.97 2 6 C2.33 6 2.66 6 3 6 C2.86335938 7.08796875 2.72671875 8.1759375 2.5859375 9.296875 C2.26256813 14.06045909 2.12149008 18.53227232 4 23 C8.39518907 27.81961984 14.3301532 30.78003286 20.02294922 33.81787109 C22 35 22 35 24.18359375 37.33984375 C25.96212929 39.31629258 25.96212929 39.31629258 29.015625 39.171875 C30.08296875 39.03265625 31.1503125 38.8934375 32.25 38.75 C33.86648438 38.55664062 33.86648438 38.55664062 35.515625 38.359375 C36.33546875 38.24078125 37.1553125 38.1221875 38 38 C34.78130827 41.70606462 31.69204851 42.00005523 27 43 C27.061875 44.093125 27.12375 45.18625 27.1875 46.3125 C27.1875 53.12082885 25.12913741 59.71863537 22.3125 65.875 C21.02176647 68.94817507 20.54519787 70.72542464 21 74 C21.99 75.485 21.99 75.485 23 77 C21.0625 76.25 21.0625 76.25 19 75 C18.67 73.68 18.34 72.36 18 71 C12.555 71.99 12.555 71.99 7 73 C7 73.33 7 73.66 7 74 C6.42556152 73.99363525 5.85112305 73.98727051 5.25927734 73.98071289 C2.62989493 73.97197124 0.00397705 74.01679456 -2.625 74.0625 C-3.98044922 74.04606445 -3.98044922 74.04606445 -5.36328125 74.02929688 C-10.56992477 74.13028467 -10.56992477 74.13028467 -14.98730469 76.62060547 C-16.47088741 78.35145198 -17.78223608 80.0748539 -19 82 C-20.32 81.34 -21.64 80.68 -23 80 C-22.54367187 79.59910156 -22.08734375 79.19820313 -21.6171875 78.78515625 C-18.09154184 75.39932318 -18.09154184 75.39932318 -16.94140625 70.84765625 C-17.46947037 68.48176268 -18.16576074 66.27589696 -19 64 C-19.50232833 62.54246703 -20.00233216 61.08413085 -20.5 59.625 C-20.76296875 58.8928125 -21.0259375 58.160625 -21.296875 57.40625 C-22.10166462 54.65208109 -22.40543864 51.97137647 -22.75 49.125 C-23.25198154 45.3972083 -23.25198154 45.3972083 -25.609375 42.70703125 C-27.73071814 41.79785856 -27.73071814 41.79785856 -31 41 C-31.66 40.34 -32.32 39.68 -33 39 C-34.5207704 38.24785002 -36.06557295 37.54332588 -37.625 36.875 C-38.85089844 36.34519531 -38.85089844 36.34519531 -40.1015625 35.8046875 C-40.72804688 35.53914063 -41.35453125 35.27359375 -42 35 C-37.17968055 33.39322685 -33.06732692 35.6787935 -28.34765625 37.1875 C-24.52551873 38.16593221 -24.52551873 38.16593221 -21 37 C-19.03799896 35.66864215 -17.12565582 34.26297477 -15.25 32.8125 C-14.26515625 32.05582031 -13.2803125 31.29914063 -12.265625 30.51953125 C-11.75451172 30.10993164 -11.24339844 29.70033203 -10.71679688 29.27832031 C-9 28 -9 28 -6.86132812 26.76074219 C-3.5395493 24.71166988 -1.37805057 23.31571213 -0.27050781 19.46118164 C0.01074538 16.48796989 0.05778415 13.6105144 0 10.625 C0.01160156 9.60277344 0.02320313 8.58054687 0.03515625 7.52734375 C0.05862506 5.01618149 0.04586906 2.51069391 0 0 Z " fill="#1E2E34" transform="translate(308,79)"/>
<path d="M0 0 C1.30517578 0.80824219 1.30517578 0.80824219 2.63671875 1.6328125 C3.51972656 2.16648437 4.40273438 2.70015625 5.3125 3.25 C5.97636719 3.74757813 6.64023437 4.24515625 7.32421875 4.7578125 C7.32421875 5.4178125 7.32421875 6.0778125 7.32421875 6.7578125 C7.86046875 6.9846875 8.39671875 7.2115625 8.94921875 7.4453125 C12.47362315 9.39300967 16.58653924 11.68021051 17.98510742 15.61914062 C18.64988832 19.81171133 18.59360723 24.02138694 18.63671875 28.2578125 C18.66572266 29.20785156 18.69472656 30.15789062 18.72460938 31.13671875 C18.78755872 38.0224088 18.78755872 38.0224088 16.80078125 41.17578125 C13.44983248 43.31637156 10.03462381 44.99742363 6.38671875 46.5703125 C5.68353516 46.89451172 4.98035156 47.21871094 4.25585938 47.55273438 C1.11812862 48.92604296 -1.04145477 49.79115193 -4.5 49.609375 C-7.30901265 48.50997687 -9.1487882 46.70881585 -11.296875 44.6328125 C-13.38826083 42.98442958 -15.07446078 42.04345241 -17.4609375 40.9453125 C-21.8074501 38.80696795 -25.79740703 36.76543371 -28.67578125 32.7578125 C-29.91914627 28.8260111 -30.14787647 25.11558792 -30.17578125 21.0078125 C-30.19374756 20.00113525 -30.21171387 18.99445801 -30.23022461 17.95727539 C-30.01936387 13.78278847 -29.77817639 10.88726902 -26.78613281 7.82177734 C-24.48158849 6.2405039 -22.19461147 4.96475198 -19.67578125 3.7578125 C-18.5775 3.20351562 -17.47921875 2.64921875 -16.34765625 2.078125 C-14.90132813 1.48644531 -14.90132813 1.48644531 -13.42578125 0.8828125 C-12.45125 0.47289063 -11.47671875 0.06296875 -10.47265625 -0.359375 C-6.36595224 -1.65562515 -3.94370534 -1.83080043 0 0 Z " fill="#F3F1EE" transform="translate(339.67578125,69.2421875)"/>
<path d="M0 0 C2.14588585 1.11218773 4.2132141 2.30597515 6.28173828 3.5559082 C6.99652344 3.9684082 7.71130859 4.3809082 8.44775391 4.8059082 C11.25722842 6.44763695 13.65811576 7.86978568 15.96923828 10.1809082 C17.35083127 17.77267423 18.30595026 28.44612119 14.12158203 35.1340332 C11.51386846 37.16730591 8.89875736 38.65195601 5.96923828 40.1809082 C3.99381197 41.6371686 2.03510272 43.11639333 0.09423828 44.6184082 C-2.96013942 46.89360792 -5.26164766 48.56165269 -9.03076172 49.1809082 C-10.98193359 48.8671875 -10.98193359 48.8671875 -12.99951172 48.25512695 C-13.73556641 48.0353418 -14.47162109 47.81555664 -15.22998047 47.58911133 C-16.36886719 47.23236328 -16.36886719 47.23236328 -17.53076172 46.8684082 C-18.29001953 46.64217773 -19.04927734 46.41594727 -19.83154297 46.18286133 C-23.41632108 45.09361614 -26.70289912 43.92321308 -30.03076172 42.1809082 C-30.08973039 39.03515613 -30.12467775 35.88954961 -30.15576172 32.7434082 C-30.17251953 31.86491211 -30.18927734 30.98641602 -30.20654297 30.08129883 C-30.31188352 15.80765452 -30.31188352 15.80765452 -25.71044922 10.5090332 C-24.32212891 9.48036133 -24.32212891 9.48036133 -22.90576172 8.4309082 C-21.91833984 7.69485352 -20.93091797 6.95879883 -19.91357422 6.20043945 C-18.96224609 5.53399414 -18.01091797 4.86754883 -17.03076172 4.1809082 C-16.28568359 3.62790039 -15.54060547 3.07489258 -14.77294922 2.50512695 C-9.99787143 -0.8187017 -5.80261526 -2.34043931 0 0 Z " fill="#F5F2F0" transform="translate(292.03076171875,68.819091796875)"/>
<path d="M0 0 C9.73308602 -0.69863843 9.73308602 -0.69863843 13.453125 2.20703125 C15.35141577 4.85681929 16.77235793 7.54584231 18.22265625 10.46484375 C19.22557722 12.11589744 20.22873498 13.76682384 21.23950195 15.41308594 C30.66466521 31.09014946 37.14387985 49.04037166 36.22265625 67.46484375 C31.93265625 67.46484375 27.64265625 67.46484375 23.22265625 67.46484375 C22.70703125 65.56734375 22.19140625 63.66984375 21.66015625 61.71484375 C18.28675324 50.85154244 12.82986417 42.56042722 4.9453125 34.42578125 C3.22265625 32.46484375 3.22265625 32.46484375 3.22265625 30.46484375 C2.65289062 30.21863281 2.083125 29.97242187 1.49609375 29.71875 C-1.15238598 28.25799056 -2.97881651 26.50539826 -5.15234375 24.40234375 C-11.55687109 18.5044432 -18.97140885 13.3678112 -26.77734375 9.46484375 C-26.77734375 8.80484375 -26.77734375 8.14484375 -26.77734375 7.46484375 C-17.76820332 3.34548111 -9.77050144 1.20236781 0 0 Z " fill="#E87C26" transform="translate(111.77734375,52.53515625)"/>
<path d="M0 0 C4.29 0 8.58 0 13 0 C14.69934316 21.24178948 4.47752694 44.20036064 -8 61 C-8.6084375 61.92425781 -9.216875 62.84851563 -9.84375 63.80078125 C-12 66 -12 66 -14.92578125 66.59375 C-27.80734865 66.23716682 -39.78027106 64.67903864 -51 58 C-51 57.34 -51 56.68 -51 56 C-49.88882813 55.443125 -48.77765625 54.88625 -47.6328125 54.3125 C-39.04473598 49.93824451 -31.13653858 45.57375785 -24 39 C-23.08734375 38.17886719 -22.1746875 37.35773438 -21.234375 36.51171875 C-10.09393988 25.99526975 -4.16373278 14.47297501 0 0 Z " fill="#EB7E26" transform="translate(135,130)"/>
<path d="M0 0 C3.24664102 1.31949047 4.94374313 3.53428713 7.25390625 6.140625 C8.11113281 7.09453125 8.96835937 8.0484375 9.8515625 9.03125 C15.24658399 15.62416441 15.24658399 15.62416441 15.02734375 20.65625 C14.26309323 25.06777739 13.09554021 29.35400347 11.81640625 33.640625 C11.60757813 34.38183594 11.39875 35.12304688 11.18359375 35.88671875 C8.96746928 43.41343418 8.96746928 43.41343418 6.19140625 45.890625 C3.32942343 47.21230457 0.38865456 48.15186353 -2.62109375 49.078125 C-3.41580078 49.33787109 -4.21050781 49.59761719 -5.02929688 49.86523438 C-7.27826834 50.58512847 -9.53867126 51.24057427 -11.80859375 51.890625 C-12.8553125 52.23738281 -13.90203125 52.58414063 -14.98046875 52.94140625 C-18.22312929 52.88318168 -18.71530502 52.47389351 -21.0546875 50.390625 C-22.13814392 49.24218772 -23.20153081 48.07454824 -24.24609375 46.890625 C-24.79974609 46.32472656 -25.35339844 45.75882813 -25.92382812 45.17578125 C-28.80338446 42.01293108 -29.81544312 40.68343972 -29.77734375 36.2734375 C-28.93849565 33.34423404 -28.03875159 30.57681632 -26.87109375 27.765625 C-25.07908428 23.33436349 -24.77913242 19.95518719 -24.74609375 15.203125 C-24.3671875 11.92578125 -24.3671875 11.92578125 -22.80859375 8.890625 C-17.70941934 5.32211558 -11.63182263 3.4141515 -5.74804688 1.53222656 C-0.94384426 -0.05707913 -0.94384426 -0.05707913 0 0 Z " fill="#F4F2EF" transform="translate(357.80859375,113.109375)"/>
<path d="M0 0 C4.36588083 1.44640632 8.72048575 2.92086608 13.0625 4.4375 C14.24972656 4.84871094 15.43695313 5.25992188 16.66015625 5.68359375 C22.77209179 8.09262565 22.77209179 8.09262565 25 10 C26.11953197 12.82358474 26.61798935 15.70096583 27.125 18.6875 C27.41330841 20.25501463 27.70755235 21.82144954 28.0078125 23.38671875 C28.15508789 24.1554834 28.30236328 24.92424805 28.45410156 25.71630859 C29.00846097 28.03539532 29.77914723 30.12667865 30.6796875 32.33203125 C32.22852613 36.63486993 32.22852613 36.63486993 31 40 C29.56764815 41.94744761 28.05900422 43.83988265 26.5 45.6875 C25.6853125 46.66074219 24.870625 47.63398438 24.03125 48.63671875 C22 51 22 51 21 52 C13.42562774 51.61486243 1.92348368 50.7544447 -3.72265625 45.3515625 C-5.49913323 42.08110641 -6.80180742 38.67939276 -8.0625 35.1875 C-8.44631836 34.15786133 -8.44631836 34.15786133 -8.83789062 33.10742188 C-13.72719682 19.82208344 -13.72719682 19.82208344 -12 15 C-10.29296875 12.24609375 -10.29296875 12.24609375 -8.1875 9.4375 C-7.15689453 8.04337891 -7.15689453 8.04337891 -6.10546875 6.62109375 C-4.19297629 4.24023579 -2.20625657 2.10709897 0 0 Z " fill="#F3F1EE" transform="translate(260,113)"/>
<path d="M0 0 C6.61573422 -0.31796458 6.61573422 -0.31796458 9.81567383 2.16162109 C10.68772461 3.47259766 10.68772461 3.47259766 11.57739258 4.81005859 C12.21161133 5.72271484 12.84583008 6.63537109 13.49926758 7.57568359 C14.37325195 8.86732422 14.37325195 8.86732422 15.26489258 10.18505859 C16.26997527 11.32415231 17.28802403 12.45216026 18.32739258 13.56005859 C20.26489258 16.18505859 20.26489258 16.18505859 19.99462891 18.07861328 C17.37623595 25.63682488 13.99182932 33.47313365 7.26489258 38.18505859 C-1.40916247 40.65489204 -14.51436782 41.24627868 -22.80541992 37.16625977 C-26.10965489 34.60476202 -28.12139865 31.30389543 -29.98510742 27.62255859 C-30.7044043 26.2284375 -30.7044043 26.2284375 -31.43823242 24.80615234 C-32.08018555 23.50871094 -32.08018555 23.50871094 -32.73510742 22.18505859 C-33.14245117 21.49541016 -33.54979492 20.80576172 -33.96948242 20.09521484 C-34.73510742 18.18505859 -34.73510742 18.18505859 -34.63745117 16.28662109 C-33.34129156 13.26785975 -31.40950403 11.06730224 -29.29760742 8.56005859 C-28.49452148 7.59841797 -27.69143555 6.63677734 -26.86401367 5.64599609 C-23.05065417 1.23789245 -23.05065417 1.23789245 -20.83081055 0.86621094 C-20.06704102 0.83479004 -19.30327148 0.80336914 -18.51635742 0.77099609 C-17.66557617 0.73232422 -16.81479492 0.69365234 -15.93823242 0.65380859 C-15.04620117 0.62287109 -14.15416992 0.59193359 -13.23510742 0.56005859 C-11.9434668 0.50205078 -11.9434668 0.50205078 -10.62573242 0.44287109 C-8.87975482 0.3696864 -7.13314281 0.31037658 -5.38623047 0.26464844 C-3.58946391 0.21070738 -1.79347555 0.12134736 0 0 Z " fill="#F4F2EF" transform="translate(317.735107421875,151.81494140625)"/>
<path d="M0 0 C2.25 2.0625 2.25 2.0625 4 4 C2.53539456 7.70175002 0.69490351 9.13266216 -2.625 11.25 C-14.64984575 19.41651395 -22.7239904 29.96979635 -26.34375 44.18359375 C-28.84266613 58.71598102 -27.31770482 72.10220108 -18.87109375 84.4296875 C-17.94490234 85.70199219 -17.94490234 85.70199219 -17 87 C-16.47535156 87.74507813 -15.95070313 88.49015625 -15.41015625 89.2578125 C-10.17260754 95.99363309 -2.34613224 100.26703221 6 102 C4.55369567 105.37471011 2.95742982 107.78192764 0 110 C-8.58804462 109.35892061 -16.43902497 104.0815151 -22.25 97.9375 C-33.69906255 83.84084174 -39.74723977 67.43819224 -38.26171875 49.17041016 C-35.94587619 29.9653352 -25.28755493 14.83004395 -10.44140625 2.953125 C-4.02401372 -1.6412644 -4.02401372 -1.6412644 0 0 Z " fill="#EFEDE7" transform="translate(557,69)"/>
<path d="M0 0 C9.96135524 7.9284256 16.20285976 16.18560873 18 29 C19.2178752 46.42959102 14.29227603 58.28646878 4 72 C3.34 72.99 2.68 73.98 2 75 C1.0394728 72.62586674 0.08152647 70.25074481 -0.875 67.875 C-1.14441406 67.20984375 -1.41382813 66.5446875 -1.69140625 65.859375 C-9.14265029 47.32213372 -9.94715382 30.0547604 -4 11 C-3.03053037 8.98502391 -2.03669025 6.98123026 -1 5 C-0.30092586 2.26427415 -0.30092586 2.26427415 0 0 Z " fill="#167054" transform="translate(450,88)"/>
<path d="M0 0 C6.50299641 6.03849667 9.24736794 12.76303638 12 21 C12.25515381 21.62535645 12.51030762 22.25071289 12.77319336 22.89501953 C15.37244471 29.6495156 15.50029572 36.06886132 15.4375 43.25 C15.42992676 44.45277588 15.42235352 45.65555176 15.41455078 46.89477539 C15.25789362 55.31023802 14.58437428 62.29693479 11 70 C10.56429687 71.01578125 10.12859375 72.0315625 9.6796875 73.078125 C5.7064932 81.71927982 0.16094078 89.67306437 -7 96 C-7.99 96 -8.98 96 -10 96 C-10.99 93.03 -10.99 93.03 -12 90 C-10.02 89.01 -10.02 89.01 -8 88 C-8.495 85.03 -8.495 85.03 -9 82 C-11.31 82 -13.62 82 -16 82 C-16.495 79.525 -16.495 79.525 -17 77 C-15.7934375 76.4121875 -15.7934375 76.4121875 -14.5625 75.8125 C-11.76935262 74.23051809 -11.76935262 74.23051809 -11.1875 71.3125 C-11.125625 70.549375 -11.06375 69.78625 -11 69 C-10.34 70.32 -9.68 71.64 -9 73 C-5.54581579 69.05888234 -3.43673833 65.12794543 -1.375 60.375 C-1.0759375 59.72660156 -0.776875 59.07820313 -0.46875 58.41015625 C3.70886581 48.89036802 4.3285801 39.15589594 4.25 28.875 C4.25773438 27.85535156 4.26546875 26.83570312 4.2734375 25.78515625 C4.25623329 19.08411596 4.16038364 12.04159442 0.93066406 5.99951172 C0 4 0 4 0 0 Z " fill="#CED1CF" transform="translate(757,81)"/>
<path d="M0 0 C5.68764626 0.54393291 9.72295459 5.60665388 13.453125 9.52734375 C22.47011325 20.74150951 23.74823327 36.23250782 23 50 C21.34775215 61.708843 16.89668694 70.74605557 9.9375 80.125 C9.5139624 80.70636719 9.0904248 81.28773438 8.65405273 81.88671875 C7.40234375 83.5078125 7.40234375 83.5078125 5 86 C3.68 86 2.36 86 1 86 C-1.12791444 83.4318274 -2.08707407 81.94712145 -1.77734375 78.578125 C-0.89753435 75.66016419 0.23853608 74.20695603 2.25 71.9375 C11.19879132 60.94484893 12.73567351 48.69170143 12 35 C10.36155571 23.15599173 5.32657538 15.2747288 -4 8 C-2.25 2.25 -2.25 2.25 0 0 Z " fill="#ECEBE5" transform="translate(455,82)"/>
<path d="M0 0 C0.33 0 0.66 0 1 0 C1.66 1.98 2.32 3.96 3 6 C5.64 5.67 8.28 5.34 11 5 C14.01826484 9.22557078 14.01826484 9.22557078 13.94140625 12.484375 C13 15 13 15 10.5859375 16.66015625 C-7.38099965 24.50703026 -26.26555411 28.99676014 -45.26953125 21.75390625 C-48.20278387 20.54850674 -51.10841247 19.30171123 -54 18 C-53.67 17.34 -53.34 16.68 -53 16 C-52.04480469 16.02320313 -51.08960938 16.04640625 -50.10546875 16.0703125 C-33.6571657 16.29989998 -19.65585164 13.26996377 -5.49609375 4.48828125 C-3 3 -3 3 0 2 C0 1.34 0 0.68 0 0 Z " fill="#D0D3D1" transform="translate(726,171)"/>
<path d="M0 0 C1.65 0 3.3 0 5 0 C5.57453822 5.14066545 6.14403324 10.28185608 6.70898438 15.42358398 C6.90162939 17.17047989 7.09562043 18.91722793 7.29101562 20.66381836 C7.57260618 23.18304818 7.84925543 25.70278066 8.125 28.22265625 C8.21249512 28.99585709 8.29999023 29.76905792 8.39013672 30.56568909 C9.7351436 42.99812288 9.7351436 42.99812288 7.234375 46.40625 C-0.83055636 53.2031104 -9.46770657 59.84566725 -20 62 C-19.6596875 61.43796875 -19.319375 60.8759375 -18.96875 60.296875 C-8.190157 41.60633607 -1.96902334 21.4001747 0 0 Z " fill="#E97E26" transform="translate(158,130)"/>
<path d="M0 0 C8.12187169 2.16583245 14.24298956 6.06253635 21 11 C21.83917969 11.59296875 22.67835938 12.1859375 23.54296875 12.796875 C24.63544922 13.63992187 24.63544922 13.63992187 25.75 14.5 C26.38421875 14.9846875 27.0184375 15.469375 27.671875 15.96875 C31.28355824 21.49250084 28.44339174 30.95160854 27.5625 37.125 C26.37909752 45.74929543 25.43718622 54.30150168 25 63 C23.68 63 22.36 63 21 63 C20.84144531 61.82566406 20.68289062 60.65132812 20.51953125 59.44140625 C17.83719197 40.50841281 13.24354448 19.39084082 1.35595703 3.85083008 C0 2 0 2 0 0 Z " fill="#E97F26" transform="translate(138,57)"/>
<path d="M0 0 C5.06998019 0.65419099 9.41990777 2.8546409 14 5 C10.24912271 9.13964384 6.57168288 11.6332187 1.5625 14.0625 C0.85730225 14.40539062 0.15210449 14.74828125 -0.57446289 15.1015625 C-17.20525817 22.95504545 -34.96958188 24.91295651 -52.55859375 18.75390625 C-55.72766666 17.54972677 -58.87065693 16.30347836 -62 15 C-61.67 14.34 -61.34 13.68 -61 13 C-60.19433594 13.16113281 -59.38867188 13.32226562 -58.55859375 13.48828125 C-40.56174952 16.07619189 -19.45256057 14.36958555 -3.66015625 5.0234375 C-0.75666908 3.20937973 -0.75666908 3.20937973 0 0 Z " fill="#10624A" transform="translate(542,174)"/>
<path d="M0 0 C5.73209732 10.57874871 4.30148919 28.9818969 0.97265625 40.20703125 C-2.46003174 50.06394657 -6.48044539 60.48044539 -14 68 C-18.79959781 67.72832465 -22.06062938 66.74562195 -26 64 C-25.01 63.505 -25.01 63.505 -24 63 C-23.32224575 61.67226832 -22.65684499 60.33819912 -22 59 C-21.11642073 57.93012389 -20.19748927 56.88871164 -19.25 55.875 C-10.71064838 46.09205349 -3.87615756 32.89359344 -2 20 C-1.81695313 18.77539062 -1.63390625 17.55078125 -1.4453125 16.2890625 C-0.26065697 8.17929416 -0.26065697 8.17929416 0 0 Z " fill="#106049" transform="translate(578,103)"/>
<path d="M0 0 C3.60583717 2.63128658 6.2903412 4.82083404 8 9 C7.54872512 14.81643174 6.28926532 20.1727299 4.625 25.75 C4.31175781 26.86181641 4.31175781 26.86181641 3.9921875 27.99609375 C2.86425566 31.82693544 1.86143126 35.07972182 -1 38 C-3.37750652 38.85994917 -5.54879223 39.44387956 -8 40 C-8.99644531 40.27070313 -9.99289062 40.54140625 -11.01953125 40.8203125 C-19.61608339 43.1279722 -19.61608339 43.1279722 -23 42 C-22.25363281 41.42507812 -21.50726563 40.85015625 -20.73828125 40.2578125 C-9.09332855 30.6561254 -1.91248621 14.82176816 0 0 Z " fill="#CDD0CE" transform="translate(365,121)"/>
<path d="M0 0 C0.66 0.66 1.32 1.32 2 2 C0.94340524 9.35645627 -3.5615308 16.9242583 -8.53857422 22.27587891 C-15.93675803 27.45798306 -27.53947745 25.76470997 -36.07324219 24.70263672 C-40.2284734 23.70507621 -42.18534036 22.15753636 -45 19 C-44 17 -44 17 -41 16 C-38.70990631 15.73597917 -36.41790783 15.48834801 -34.125 15.25 C-23.36638463 13.94086779 -14.12402579 10.09987044 -5.0234375 4.234375 C-3 3 -3 3 0 2 C0 1.34 0 0.68 0 0 Z " fill="#D0D3D1" transform="translate(336,166)"/>
<path d="M0 0 C0.33 0 0.66 0 1 0 C3.44761528 15.54068056 3.44761528 15.54068056 0.26171875 20.953125 C-2.35659271 23.34176001 -4.96547191 25.16989801 -8 27 C-9.0209375 27.66515625 -10.041875 28.3303125 -11.09375 29.015625 C-16.23151262 32.20726542 -21.05946523 34.78489061 -27 36 C-26.40251953 34.93072266 -26.40251953 34.93072266 -25.79296875 33.83984375 C-22.91878363 28.64393245 -20.20578782 23.51446954 -18 18 C-17.34 18.33 -16.68 18.66 -16 19 C-11.7613753 16.99783557 -9.22835633 14.23887966 -6.3125 10.625 C-5.54550781 9.68914062 -4.77851563 8.75328125 -3.98828125 7.7890625 C-2.15624988 5.21917959 -1.01069884 2.97264366 0 0 Z " fill="#CE6921" transform="translate(165,156)"/>
<path d="M0 0 C-3.71184921 7.03297745 -8.11191641 10.86316207 -14.84375 15.00390625 C-17.98047635 16.98765274 -20.79054975 19.18488105 -23.6875 21.5 C-28.73525097 25.25646584 -31.81165138 25.8115867 -38 25 C-32.39967027 12.56397369 -17.00442811 5.09198651 -5.20703125 -0.3203125 C-3 -1 -3 -1 0 0 Z " fill="#E8E7E5" transform="translate(291,56)"/>
<path d="M0 0 C-1.39879603 4.32355135 -3.02075255 8.56372605 -7 11 C-16.74078266 12.61911133 -30.0425166 11.00650627 -38.93359375 6.51953125 C-39.61550781 6.01808594 -40.29742187 5.51664063 -41 5 C-41 4.34 -41 3.68 -41 3 C-40.01157104 2.970271 -40.01157104 2.970271 -39.00317383 2.93994141 C-22.61812259 2.50781323 -22.61812259 2.50781323 -6.390625 0.40234375 C-4 0 -4 0 0 0 Z " fill="#D26B20" transform="translate(130,185)"/>
<path d="M0 0 C13.644019 3.70007295 28.0279349 13.04190235 36 25 C31.07912576 25.73813114 28.368906 25.8311215 24.046875 23.20703125 C21.98569806 21.62943813 19.94948377 20.01877568 17.9375 18.37890625 C15.36799773 16.29801943 12.80824935 14.54456169 10 12.8125 C4.94727083 9.51406378 2.62763474 5.30076964 0 0 Z " fill="#E3E3E1" transform="translate(330,55)"/>
<path d="M0 0 C0.66 0 1.32 0 2 0 C10 20.50314465 10 20.50314465 10 31 C6.04 31 2.08 31 -2 31 C-2.22214098 20.44830351 -1.41529451 10.43779702 0 0 Z " fill="#E47E26" transform="translate(175,89)"/>
<path d="M0 0 C3.96 0 7.92 0 12 0 C10.97220388 10.0938783 8.73884434 18.61007794 5 28 C4.34 28 3.68 28 3 28 C2.4932817 24.45926096 1.99582971 20.91727889 1.5 17.375 C1.35691406 16.37597656 1.21382812 15.37695312 1.06640625 14.34765625 C0.93105469 13.37441406 0.79570312 12.40117187 0.65625 11.3984375 C0.53056641 10.50817871 0.40488281 9.61791992 0.27539062 8.70068359 C-0.01896935 5.81397257 0 2.90168026 0 0 Z " fill="#E17C26" transform="translate(173,130)"/>
<path d="M0 0 C2.8359375 0.49609375 2.8359375 0.49609375 6 2 C7.20286172 4.8117656 7.95824213 7.12602099 8.625 10.0625 C9.02081324 11.61722588 9.42181585 13.17064029 9.828125 14.72265625 C10.02083984 15.46660645 10.21355469 16.21055664 10.41210938 16.97705078 C11.13710808 19.471793 12.17716423 21.69867853 13.375 24 C15.55044846 28.44661666 15.03024806 32.2630986 14 37 C5.5942796 29.7439982 2.01574451 15.50440771 0 5 C-0.09765625 2.06640625 -0.09765625 2.06640625 0 0 Z " fill="#E7E6E5" transform="translate(239,129)"/>
<path d="M0 0 C0.33 0 0.66 0 1 0 C1.90298464 12.51637037 -1.65643322 24.73858936 -9 35 C-10.485 35.495 -10.485 35.495 -12 36 C-12.39894189 30.4148136 -11.95297116 27.44768141 -9.140625 22.4765625 C-7.10126706 18.0486415 -6.20859459 13.22417011 -5.125 8.48828125 C-3.956204 4.86420198 -2.60431916 2.74608654 0 0 Z " fill="#D0D4D2" transform="translate(379,128)"/>
<path d="M0 0 C1.1149585 0.03610382 1.1149585 0.03610382 2.25244141 0.07293701 C3.8228532 0.12655621 5.39302807 0.18754943 6.96289062 0.25537109 C9.36557737 0.35896872 11.768242 0.4412803 14.171875 0.51953125 C15.69796167 0.57428037 17.22400586 0.63022973 18.75 0.6875 C19.46881348 0.71362366 20.18762695 0.73974731 20.92822266 0.7666626 C23.97227056 0.90111475 26.4662466 1.13979053 29.375 2.109375 C29.375 2.769375 29.375 3.429375 29.375 4.109375 C15.4433415 6.26752957 3.09580285 7.26269911 -10.625 3.109375 C-7.9128579 -0.84755751 -4.32856509 -0.20607017 0 0 Z " fill="#E0E2E1" transform="translate(300.625,190.890625)"/>
<path d="M0 0 C4 1.33333333 8 2.66666667 12 4 C10.55369567 7.37471011 8.95742982 9.78192764 6 12 C1.41753169 11.90038112 -2.02536057 10.17658826 -6 8 C-3.375 3.125 -3.375 3.125 0 2 C0 1.34 0 0.68 0 0 Z " fill="#CDD1CF" transform="translate(551,167)"/>
<path d="M0 0 C5.88071468 4.12901243 11.19161341 8.64171814 16 14 C16 14.33 16 14.66 16 15 C8.02201622 15.62572422 8.02201622 15.62572422 3.9375 13.125 C2 11 2 11 2 9 C2.66 9 3.32 9 4 9 C3.34 8.071875 2.68 7.14375 2 6.1875 C0 3 0 3 0 0 Z " fill="#CACDCC" transform="translate(350,65)"/>
<path d="M0 0 C0.99 0.33 1.98 0.66 3 1 C2.4498845 5.89900151 0.96682361 9.48951337 -1.375 13.8125 C-1.98085938 14.95332031 -2.58671875 16.09414062 -3.2109375 17.26953125 C-5 20 -5 20 -8 21 C-8.67090715 13.75420281 -6.58125682 9.24161903 -3 3 C-1.7922442 6.62326739 -2.45688872 7.64146369 -4 11 C-1.41423292 8.41423292 -1.50867467 6.56072267 -1 3 C-0.67 2.01 -0.34 1.02 0 0 Z " fill="#CED1D1" transform="translate(375,143)"/>
<path d="M0 0 C1.30062431 3.81516464 0.89369853 7.27561763 0.5625 11.25 C0.46066406 12.51328125 0.35882813 13.7765625 0.25390625 15.078125 C0.17011719 16.04234375 0.08632812 17.0065625 0 18 C-1.32 18 -2.64 18 -4 18 C-5.33257403 7.44191344 -5.33257403 7.44191344 -4 3 C-3.01 3 -2.02 3 -1 3 C-0.67 2.01 -0.34 1.02 0 0 Z " fill="#CB6B20" transform="translate(163,102)"/>
<path d="M0 0 C2.20906244 3.31359366 3.34349593 6.62755721 4.5625 10.375 C4.78357422 11.035 5.00464844 11.695 5.23242188 12.375 C6.39134851 15.89029408 7.37302996 19.35089347 8 23 C7.34 23.33 6.68 23.66 6 24 C-2.3450933 6.84384372 -2.3450933 6.84384372 0 0 Z " fill="#3C3F41" transform="translate(247,133)"/>
<path d="M0 0 C1.65 0 3.3 0 5 0 C5.91657981 5.38490641 6.11138159 10.54230189 6 16 C5.67 16 5.34 16 5 16 C4.67 13.69 4.34 11.38 4 9 C2.68 9 1.36 9 0 9 C0 6.03 0 3.06 0 0 Z " fill="#BC6622" transform="translate(158,130)"/>
<path d="M0 0 C1.32 0.66 2.64 1.32 4 2 C3.47277344 2.23589844 2.94554687 2.47179687 2.40234375 2.71484375 C-1.34642408 4.72028215 -4.71473593 7.2957034 -8.13476562 9.81054688 C-11.39366051 12.13398302 -13.99505781 13.57330523 -18 14 C-14.36364015 10.14449982 -10.58308152 7.13258862 -6.1875 4.1875 C-5.59001953 3.78080078 -4.99253906 3.37410156 -4.37695312 2.95507812 C-2.92125436 1.96520297 -1.46108826 0.98190265 0 0 Z " fill="#2F3133" transform="translate(283,65)"/>
<path d="M0 0 C1.9480957 0.07734375 1.9480957 0.07734375 3.93554688 0.15625 C5.30730243 0.22112701 6.67904712 0.28623413 8.05078125 0.3515625 C9.43420451 0.40981871 10.81766827 0.46712165 12.20117188 0.5234375 C15.58905756 0.66509126 18.97622229 0.81652404 22.36328125 0.9765625 C22.36328125 1.3065625 22.36328125 1.6365625 22.36328125 1.9765625 C21.73873047 2.00161865 21.11417969 2.0266748 20.47070312 2.05249023 C17.60141002 2.16956631 14.732357 2.29178001 11.86328125 2.4140625 C10.88101562 2.45337891 9.89875 2.49269531 8.88671875 2.53320312 C4.46866503 2.72465212 0.14285917 2.96549595 -4.23046875 3.63671875 C-5.9165625 3.80494141 -5.9165625 3.80494141 -7.63671875 3.9765625 C-8.29671875 3.3165625 -8.95671875 2.6565625 -9.63671875 1.9765625 C-5.95557174 -0.47753551 -4.36632027 -0.19066901 0 0 Z " fill="#AEB3B3" transform="translate(299.63671875,191.0234375)"/>
<path d="M0 0 C0.66 0.99 1.32 1.98 2 3 C1.67 3.99 1.34 4.98 1 6 C2.65 6 4.3 6 6 6 C5.278125 6.556875 4.55625 7.11375 3.8125 7.6875 C1.02542701 9.97909334 -1.48641528 12.41459857 -4 15 C-4.99 14.34 -5.98 13.68 -7 13 C-6.566875 12.55269531 -6.13375 12.10539063 -5.6875 11.64453125 C-2.08835429 7.93039975 -2.08835429 7.93039975 -0.6875 3.125 C-0.790625 2.42375 -0.89375 1.7225 -1 1 C-0.67 0.67 -0.34 0.34 0 0 Z " fill="#2A3237" transform="translate(292,146)"/>
<path d="M0 0 C3.25519625 3.02268223 5.78310719 6.14096436 8 10 C7.67 10.99 7.34 11.98 7 13 C7.33 13.99 7.66 14.98 8 16 C7.01 16 6.02 16 5 16 C4.15787744 14.08717875 3.32661136 12.16957527 2.5 10.25 C2.0359375 9.18265625 1.571875 8.1153125 1.09375 7.015625 C0 4 0 4 0 0 Z " fill="#C7CAC8" transform="translate(757,81)"/>
<path d="M0 0 C0 0.66 0 1.32 0 2 C-6.64795961 2.91299547 -12.87468898 2.98938155 -19.5625 2.5625 C-20.47580078 2.51029297 -21.38910156 2.45808594 -22.33007812 2.40429688 C-24.55387081 2.27622505 -26.77701936 2.14136041 -29 2 C-29 1.67 -29 1.34 -29 1 C-28.15236084 0.96241577 -28.15236084 0.96241577 -27.28759766 0.92407227 C-24.73316258 0.80820044 -22.1791045 0.68543463 -19.625 0.5625 C-18.29082031 0.50352539 -18.29082031 0.50352539 -16.9296875 0.44335938 C-16.07890625 0.40146484 -15.228125 0.35957031 -14.3515625 0.31640625 C-13.56604004 0.27974854 -12.78051758 0.24309082 -11.97119141 0.20532227 C-4.17777707 -0.60645151 -4.17777707 -0.60645151 0 0 Z " fill="#CCCFCE" transform="translate(330,193)"/>
<path d="M0 0 C0.33 0 0.66 0 1 0 C1.02725341 1.7290774 1.04650987 3.45828176 1.0625 5.1875 C1.07410156 6.15042969 1.08570313 7.11335937 1.09765625 8.10546875 C1.00486622 10.85576513 0.62111685 13.32479591 0 16 C-0.66666667 14.66666667 -1.33333333 13.33333333 -2 12 C-2.391875 11.34 -2.78375 10.68 -3.1875 10 C-4.21328722 7.47498531 -4.01805218 6.5059746 -3 4 C-1.5 1.75 -1.5 1.75 0 0 Z " fill="#C7CBCA" transform="translate(379,128)"/>
<path d="M0 0 C2.14503684 3.48846822 2.23354662 6.24405878 2.1953125 10.296875 C2.18886719 11.50214844 2.18242188 12.70742187 2.17578125 13.94921875 C2.15902344 15.20347656 2.14226563 16.45773438 2.125 17.75 C2.11597656 19.01972656 2.10695313 20.28945312 2.09765625 21.59765625 C2.07409005 24.73196093 2.04118832 27.86588541 2 31 C1.67 31 1.34 31 1 31 C0.8301095 28.50018262 0.66402047 26.00020399 0.5 23.5 C0.42845703 22.45585937 0.42845703 22.45585937 0.35546875 21.390625 C0.12212248 17.79042538 -0.02188853 14.22168379 0.00390625 10.61328125 C0.00075956 7.7025961 -0.28909196 5.74207386 -1 3 C-0.67 2.01 -0.34 1.02 0 0 Z " fill="#B0B4B4" transform="translate(770,107)"/>
<path d="M0 0 C0.33 0 0.66 0 1 0 C1 3.96 1 7.92 1 12 C-1.31 12 -3.62 12 -6 12 C-4.6875 9.0625 -4.6875 9.0625 -3 6 C-2.01 5.67 -1.02 5.34 0 5 C0 3.35 0 1.7 0 0 Z " fill="#CF6B1F" transform="translate(147,108)"/>
<path d="M0 0 C4.2742558 1.5830577 6.26531794 4.50568404 9 8 C1.02201622 8.62572422 1.02201622 8.62572422 -3.0625 6.125 C-5 4 -5 4 -5 2 C-4.01 2 -3.02 2 -2 2 C-1.01 3.485 -1.01 3.485 0 5 C1.32 5 2.64 5 4 5 C2.68 3.35 1.36 1.7 0 0 Z " fill="#D3D5D5" transform="translate(357,72)"/>
<path d="M0 0 C1.98 0.66 3.96 1.32 6 2 C5.21302675 5.41021743 4.12880057 8.68885166 3 12 C0.97649676 8.96474514 0.67875982 7.80573798 0.375 4.3125 C0.30023438 3.50425781 0.22546875 2.69601563 0.1484375 1.86328125 C0.09945312 1.24839844 0.05046875 0.63351563 0 0 Z " fill="#DFDEDD" transform="translate(239,129)"/>
<path d="M0 0 C7.26 0 14.52 0 22 0 C22 0.33 22 0.66 22 1 C13.585 1.495 13.585 1.495 5 2 C5.66 2.66 6.32 3.32 7 4 C4.03 3.505 4.03 3.505 1 3 C0.67 2.01 0.34 1.02 0 0 Z " fill="#DD7120" transform="translate(89,188)"/>
<path d="M0 0 C5.69305433 1.23876645 11.35370013 2.56276003 17 4 C15.68 4.99 14.36 5.98 13 7 C12.43796875 6.71382813 11.8759375 6.42765625 11.296875 6.1328125 C8.97129077 4.98584069 6.62229799 3.92160206 4.25 2.875 C3.45078125 2.52179688 2.6515625 2.16859375 1.828125 1.8046875 C1.22484375 1.53914063 0.6215625 1.27359375 0 1 C0 0.67 0 0.34 0 0 Z " fill="#343B3F" transform="translate(266,113)"/>
<path d="M0 0 C1.32 0.66 2.64 1.32 4 2 C3.525625 2.598125 3.05125 3.19625 2.5625 3.8125 C0.83534256 6.00382924 0.83534256 6.00382924 0 9 C-0.99 8.34 -1.98 7.68 -3 7 C-2.25 2.25 -2.25 2.25 0 0 Z " fill="#30393D" transform="translate(657,162)"/>
<path d="M0 0 C0.33 0 0.66 0 1 0 C1.28875 1.11375 1.5775 2.2275 1.875 3.375 C2.69241329 7.00291092 2.69241329 7.00291092 5 9 C3.125 8.75 3.125 8.75 1 8 C0.34 6.68 -0.32 5.36 -1 4 C-4.63 4 -8.26 4 -12 4 C-12 3.67 -12 3.34 -12 3 C-6.06 2.505 -6.06 2.505 0 2 C0 1.34 0 0.68 0 0 Z " fill="#151E22" transform="translate(326,148)"/>
<path d="M0 0 C2 3 2 3 1.7578125 5.04296875 C1.171875 7.02864583 0.5859375 9.01432292 0 11 C-0.66 11 -1.32 11 -2 11 C-2.33 8.03 -2.66 5.06 -3 2 C-2.01 1.34 -1.02 0.68 0 0 Z " fill="#DB7E26" transform="translate(178,147)"/>
<path d="M0 0 C4.29 0 8.58 0 13 0 C13 3.96 13 7.92 13 12 C12.67 12 12.34 12 12 12 C11.814375 10.2984375 11.814375 10.2984375 11.625 8.5625 C11.41875 7.386875 11.2125 6.21125 11 5 C10.34 4.67 9.68 4.34 9 4 C9 3.34 9 2.68 9 2 C6.03 1.67 3.06 1.34 0 1 C0 0.67 0 0.34 0 0 Z " fill="#C37324" transform="translate(135,130)"/>
<path d="M0 0 C0.33 0 0.66 0 1 0 C1 2.31 1 4.62 1 7 C-1.64 7 -4.28 7 -7 7 C-7 9.64 -7 12.28 -7 15 C-6.34 15.33 -5.68 15.66 -5 16 C-5.99 16.33 -6.98 16.66 -8 17 C-8.33 13.37 -8.66 9.74 -9 6 C-5.16380575 5.04095144 -3.67568464 5.08107884 0 6 C0 4.02 0 2.04 0 0 Z " fill="#4D5456" transform="translate(741,123)"/>
<path d="M0 0 C1.73554378 2.60331567 2.57382626 4.39807286 3.5 7.3125 C3.75394531 8.10140625 4.00789062 8.8903125 4.26953125 9.703125 C4.51058594 10.46109375 4.75164063 11.2190625 5 12 C5.5878125 13.7634375 5.5878125 13.7634375 6.1875 15.5625 C6.455625 16.366875 6.72375 17.17125 7 18 C6.01 17.67 5.02 17.34 4 17 C2.8671875 14.3828125 2.8671875 14.3828125 1.875 11.125 C1.54242187 10.05507812 1.20984375 8.98515625 0.8671875 7.8828125 C0.43792969 6.45582031 0.43792969 6.45582031 0 5 C-0.33 4.01 -0.66 3.02 -1 2 C-0.67 1.34 -0.34 0.68 0 0 Z " fill="#4C5154" transform="translate(635,141)"/>
<path d="M0 0 C2.31 0.66 4.62 1.32 7 2 C7.33 1.34 7.66 0.68 8 0 C8 0.99 8 1.98 8 3 C6.72125 3.0825 5.4425 3.165 4.125 3.25 C1.94666582 3.45869931 1.94666582 3.45869931 0 4 C-1.5899433 5.92064793 -1.5899433 5.92064793 -2 8 C-2.6875 5.6875 -2.6875 5.6875 -3 3 C-1.5625 1.1875 -1.5625 1.1875 0 0 Z " fill="#4B5153" transform="translate(660,149)"/>
<path d="M0 0 C0.33 0 0.66 0 1 0 C1.99 4.62 2.98 9.24 4 14 C3.01 13.67 2.02 13.34 1 13 C-0.85026394 8.28182696 -1.19884975 4.91528399 0 0 Z " fill="#448367" transform="translate(519,133)"/>
<path d="M0 0 C1.98 0.495 1.98 0.495 4 1 C3.34 1 2.68 1 2 1 C2.020625 2.216875 2.04125 3.43375 2.0625 4.6875 C2.06824116 7.91977322 1.78766315 10.84934741 1 14 C0.34 14 -0.32 14 -1 14 C-1.08944342 10.15393275 -0.81149494 6.75316408 0 3 C0 2.01 0 1.02 0 0 Z " fill="#30383B" transform="translate(333,121)"/>
<path d="M0 0 C-0.33 1.32 -0.66 2.64 -1 4 C-0.34 4.33 0.32 4.66 1 5 C-1.60582371 5.93065133 -2.64198224 6.14917407 -5.25 5.0625 C-5.8275 4.711875 -6.405 4.36125 -7 4 C-7 3.34 -7 2.68 -7 2 C-4.35261084 0.5393715 -3.10551666 0 0 0 Z " fill="#CA7123" transform="translate(92,58)"/>
<path d="M0 0 C4.22489602 0.53280216 6.54080716 1.87678199 9.8125 4.5625 C10.60269531 5.20316406 11.39289062 5.84382813 12.20703125 6.50390625 C12.79871094 6.99761719 13.39039063 7.49132812 14 8 C13.34 8.66 12.68 9.32 12 10 C11.319375 9.236875 10.63875 8.47375 9.9375 7.6875 C6.64101475 4.67156669 4.13693165 3.54120983 0 2 C0 1.34 0 0.68 0 0 Z " fill="#2E5E81" transform="translate(779,11)"/>
<path d="M0 0 C0.33 0 0.66 0 1 0 C1 2.97 1 5.94 1 9 C-0.11375 9.103125 -1.2275 9.20625 -2.375 9.3125 C-3.57125 9.539375 -4.7675 9.76625 -6 10 C-6.66 10.99 -7.32 11.98 -8 13 C-8 11.35 -8 9.7 -8 8 C-4.71303767 7.20046862 -3.28976808 6.90341064 0 8 C0 5.36 0 2.72 0 0 Z " fill="#636869" transform="translate(723,113)"/>
<path d="M0 0 C0.66 0.33 1.32 0.66 2 1 C-0.31 3.64 -2.62 6.28 -5 9 C-5.99 8.67 -6.98 8.34 -8 8 C-5.36 5.36 -2.72 2.72 0 0 Z " fill="#E58425" transform="translate(175,179)"/>
<path d="M0 0 C0.33 1.32 0.66 2.64 1 4 C0.01 4.33 -0.98 4.66 -2 5 C-2 6.32 -2 7.64 -2 9 C-2.99 9.33 -3.98 9.66 -5 10 C-5.3125 7.8125 -5.3125 7.8125 -5 5 C-2.5 2.1875 -2.5 2.1875 0 0 Z " fill="#2E383D" transform="translate(732,166)"/>
<path d="M0 0 C2.375 -0.1875 2.375 -0.1875 5 0 C7 3 7 3 6.625 5.6875 C6.41875 6.450625 6.2125 7.21375 6 8 C5.67 8 5.34 8 5 8 C4.67 6.35 4.34 4.7 4 3 C2.02 3 0.04 3 -2 3 C-1.34 2.67 -0.68 2.34 0 2 C0 1.34 0 0.68 0 0 Z " fill="#363D40" transform="translate(743,162)"/>
<path d="M0 0 C3.26008643 3.16952847 6.22237877 6.39937989 9 10 C6 10 6 10 4.39453125 8.57421875 C3.61142578 7.64029297 3.61142578 7.64029297 2.8125 6.6875 C2.01779297 5.76517578 2.01779297 5.76517578 1.20703125 4.82421875 C0 3 0 3 0 0 Z " fill="#276E4F" transform="translate(538,152)"/>
<path d="M0 0 C0.33 0 0.66 0 1 0 C1 2.97 1 5.94 1 9 C-0.32 9.33 -1.64 9.66 -3 10 C-3.33 10.99 -3.66 11.98 -4 13 C-4.99 13.495 -4.99 13.495 -6 14 C-6 12.35 -6 10.7 -6 9 C-4.02 8.67 -2.04 8.34 0 8 C0 5.36 0 2.72 0 0 Z " fill="#5B6063" transform="translate(723,130)"/>
<path d="M0 0 C0.66 0 1.32 0 2 0 C0.5140084 4.59306496 -1.85014682 7.43569245 -5 11 C-5 7.30581799 -3.71820705 5.22163822 -2 2 C-1.34 2 -0.68 2 0 2 C0 1.34 0 0.68 0 0 Z " fill="#1D5740" transform="translate(459,148)"/>
<path d="M0 0 C2.33294775 -0.04241723 4.66702567 -0.04092937 7 0 C8 1 8 1 8.0625 3.5625 C8.041875 4.366875 8.02125 5.17125 8 6 C7.01 6 6.02 6 5 6 C4.67 4.35 4.34 2.7 4 1 C2.68 0.67 1.36 0.34 0 0 Z " fill="#384043" transform="translate(736,137)"/>
<path d="M0 0 C0.66 0.33 1.32 0.66 2 1 C1.34 4.63 0.68 8.26 0 12 C-0.66 12 -1.32 12 -2 12 C-1.85831863 10.56208484 -1.71148957 9.1246763 -1.5625 7.6875 C-1.48128906 6.88699219 -1.40007813 6.08648437 -1.31640625 5.26171875 C-1 3 -1 3 0 0 Z " fill="#307758" transform="translate(520,104)"/>
<path d="M0 0 C1.12377697 3.30435084 0.89554742 5.0506862 -0.4375 8.25 C-0.72496094 8.95640625 -1.01242187 9.6628125 -1.30859375 10.390625 C-1.53675781 10.92171875 -1.76492188 11.4528125 -2 12 C-3.1171875 10.265625 -3.1171875 10.265625 -4 8 C-3.3203125 5.859375 -3.3203125 5.859375 -2.125 3.75 C-1.73570312 3.04359375 -1.34640625 2.3371875 -0.9453125 1.609375 C-0.63335938 1.07828125 -0.32140625 0.5471875 0 0 Z " fill="#353C40" transform="translate(639,91)"/>
<path d="M0 0 C2.97 0 5.94 0 9 0 C9.33 0.99 9.66 1.98 10 3 C7.03 3 4.06 3 1 3 C0.67 2.01 0.34 1.02 0 0 Z " fill="#2C383C" transform="translate(655,82)"/>
<path d="M0 0 C0.66 0 1.32 0 2 0 C1.67 3.3 1.34 6.6 1 10 C0.34 10 -0.32 10 -1 10 C-1.125 2.25 -1.125 2.25 0 0 Z " fill="#363E42" transform="translate(679,129)"/>
<path d="M0 0 C0 0.33 0 0.66 0 1 C-1.65 1 -3.3 1 -5 1 C-4.67 2.98 -4.34 4.96 -4 7 C-4.99 6.67 -5.98 6.34 -7 6 C-7 4.02 -7 2.04 -7 0 C-4.3333581 -1.33332095 -2.83319697 -0.67102033 0 0 Z " fill="#3E4446" transform="translate(722,104)"/>
<path d="M0 0 C1.32 0.33 2.64 0.66 4 1 C3.625 3.4375 3.625 3.4375 3 6 C2.01 6.495 2.01 6.495 1 7 C0.01 6.34 -0.98 5.68 -2 5 C-1.34 4.34 -0.68 3.68 0 3 C0 2.01 0 1.02 0 0 Z " fill="#303A3E" transform="translate(746,78)"/>
<path d="M0 0 C0.33 0.66 0.66 1.32 1 2 C-1.31 4.64 -3.62 7.28 -6 10 C-6.66 9.67 -7.32 9.34 -8 9 C-5.36 6.03 -2.72 3.06 0 0 Z " fill="#DC8125" transform="translate(70,71)"/>
<path d="M0 0 C2.97 0.99 5.94 1.98 9 3 C7.02 3.99 7.02 3.99 5 5 C4.67 5.66 4.34 6.32 4 7 C0 2.25 0 2.25 0 0 Z " fill="#D48125" transform="translate(138,57)"/>
<path d="M0 0 C1.32 0 2.64 0 4 0 C4.33 0.66 4.66 1.32 5 2 C7.01669827 3.13350534 7.01669827 3.13350534 9 4 C6.36 4.33 3.72 4.66 1 5 C0.67 3.35 0.34 1.7 0 0 Z " fill="#E6E6E5" transform="translate(740,158)"/>
<path d="M0 0 C0.66 0.99 1.32 1.98 2 3 C1.67 3.99 1.34 4.98 1 6 C2.65 6 4.3 6 6 6 C4.68 6.99 3.36 7.98 2 9 C0.68 8.34 -0.64 7.68 -2 7 C-1.42415568 4.61435923 -0.77772405 2.33317216 0 0 Z " fill="#3B4044" transform="translate(292,146)"/>
<path d="M0 0 C1.65 0 3.3 0 5 0 C5.33 1.32 5.66 2.64 6 4 C4.35 4.33 2.7 4.66 1 5 C0.67 3.35 0.34 1.7 0 0 Z " fill="#DEDEDD" transform="translate(736,145)"/>
<path d="M0 0 C2.10827055 3.16240582 2.33817465 4.50657469 2.625 8.1875 C2.69976562 9.08855469 2.77453125 9.98960937 2.8515625 10.91796875 C2.90054688 11.60503906 2.94953125 12.29210937 3 13 C2.34 12.67 1.68 12.34 1 12 C-1.38056989 4.35711773 -1.38056989 4.35711773 0 0 Z " fill="#333739" transform="translate(247,133)"/>
<path d="M0 0 C0.33 0 0.66 0 1 0 C2.32594359 5.96674616 2.0884587 11.92583615 2 18 C1.67 18 1.34 18 1 18 C0.90912109 16.96939453 0.90912109 16.96939453 0.81640625 15.91796875 C0.73261719 15.01691406 0.64882813 14.11585937 0.5625 13.1875 C0.48128906 12.29417969 0.40007812 11.40085937 0.31640625 10.48046875 C0.06510233 7.87256441 0.06510233 7.87256441 -1 5 C-0.5625 2.3125 -0.5625 2.3125 0 0 Z " fill="#F8F6F2" transform="translate(475,113)"/>
<path d="M0 0 C5.08335725 0.15404113 7.35754718 3.02068432 10.64453125 6.50390625 C11.09183594 6.99761719 11.53914062 7.49132812 12 8 C11.34 8.66 10.68 9.32 10 10 C9.52949219 9.44570312 9.05898438 8.89140625 8.57421875 8.3203125 C7.95160156 7.59585938 7.32898438 6.87140625 6.6875 6.125 C6.07261719 5.40570313 5.45773437 4.68640625 4.82421875 3.9453125 C2.9587676 1.80820669 2.9587676 1.80820669 0 0 Z " fill="#2D3438" transform="translate(746,70)"/>
<path d="M0 0 C-0.33 1.98 -0.66 3.96 -1 6 C-3.475 5.01 -3.475 5.01 -6 4 C-6 3.34 -6 2.68 -6 2 C-2.25 0 -2.25 0 0 0 Z " fill="#D37D26" transform="translate(90,184)"/>
<path d="M0 0 C0.66 0.33 1.32 0.66 2 1 C2.99 0.67 3.98 0.34 5 0 C3.54744301 3.82946843 1.57104439 5.12050295 -2 7 C-1.34 4.69 -0.68 2.38 0 0 Z " fill="#DA7522" transform="translate(147,174)"/>
<path d="M0 0 C0.33 1.32 0.66 2.64 1 4 C-0.98 4 -2.96 4 -5 4 C-5 4.66 -5 5.32 -5 6 C-5.66 6 -6.32 6 -7 6 C-6.67 4.68 -6.34 3.36 -6 2 C-4.02 2 -2.04 2 0 2 C0 1.34 0 0.68 0 0 Z " fill="#2E3639" transform="translate(666,90)"/>
<path d="M0 0 C3.7952131 1.49097658 5.61042731 3.75700849 8 7 C5 7 5 7 2.3125 4.625 C0 2 0 2 0 0 Z " fill="#2E3036" transform="translate(107,89)"/>
<path d="M0 0 C2.64 0 5.28 0 8 0 C8 0.99 8 1.98 8 3 C6.02 3.33 4.04 3.66 2 4 C2 3.34 2 2.68 2 2 C1.34 1.34 0.68 0.68 0 0 Z " fill="#C56521" transform="translate(92,189)"/>
<path d="M0 0 C2 1.375 2 1.375 4 3 C4 3.66 4 4.32 4 5 C3.01 5.33 2.02 5.66 1 6 C-0.5 4.625 -0.5 4.625 -2 3 C-2 2.34 -2 1.68 -2 1 C-1.34 0.67 -0.68 0.34 0 0 Z " fill="#31383E" transform="translate(331,156)"/>
<path d="M0 0 C-3.85756507 2.15305957 -6.55129785 3.39253254 -11 3 C-9.08400609 0.55178556 -8.02756971 0.00675177 -4.9375 -0.75 C-2 -1 -2 -1 0 0 Z " fill="#13181C" transform="translate(346,118)"/>
<path d="M0 0 C1.32 0.66 2.64 1.32 4 2 C1.33333333 3.33333333 -1.33333333 4.66666667 -4 6 C-4.66 5.34 -5.32 4.68 -6 4 C-4.02 2.68 -2.04 1.36 0 0 Z " fill="#434648" transform="translate(283,65)"/>
<path d="M0 0 C0.99 0.33 1.98 0.66 3 1 C1.02 2.98 -0.96 4.96 -3 7 C-3.66 6.67 -4.32 6.34 -5 6 C-3.35 4.02 -1.7 2.04 0 0 Z " fill="#DFE1DB" transform="translate(458,154)"/>
<path d="M0 0 C2.31 0 4.62 0 7 0 C6.071875 0.3403125 6.071875 0.3403125 5.125 0.6875 C2.38589791 2.37929835 1.94975528 3.99244161 1 7 C0.34 7 -0.32 7 -1 7 C-0.67 4.69 -0.34 2.38 0 0 Z " fill="#D4D5D4" transform="translate(678,145)"/>
<path d="M0 0 C0.66 0 1.32 0 2 0 C2.66 2.31 3.32 4.62 4 7 C2.68 7 1.36 7 0 7 C0 4.69 0 2.38 0 0 Z " fill="#B77226" transform="translate(175,89)"/>
<path d="M0 0 C0.66 0 1.32 0 2 0 C1.45773019 3.79588866 -0.20127563 5.47211993 -3 8 C-3.66 7.67 -4.32 7.34 -5 7 C-4.21654285 5.82780457 -3.42297164 4.66236332 -2.625 3.5 C-2.18414062 2.8503125 -1.74328125 2.200625 -1.2890625 1.53125 C-0.65097656 0.77328125 -0.65097656 0.77328125 0 0 Z " fill="#DF8324" transform="translate(125,153)"/>
<path d="M0 0 C0.66 0 1.32 0 2 0 C2.33 2.64 2.66 5.28 3 8 C2.34 8 1.68 8 1 8 C-0.35439668 5.29120665 -0.06501451 2.99066732 0 0 Z " fill="#394044" transform="translate(238,134)"/>
<path d="M0 0 C2.97 1.98 2.97 1.98 6 4 C4.02 4.99 4.02 4.99 2 6 C1.34 5.34 0.68 4.68 0 4 C0 2.68 0 1.36 0 0 Z " fill="#303539" transform="translate(350,74)"/>
<path d="M0 0 C3.36720387 1.39332574 4.9859524 2.9789286 7 6 C4 6 4 6 1.8125 4.125 C0 2 0 2 0 0 Z " fill="#2B3338" transform="translate(358,70)"/>
<path d="M0 0 C4.75 0.75 4.75 0.75 7 3 C6.67 3.99 6.34 4.98 6 6 C5.34 5.67 4.68 5.34 4 5 C4 4.34 4 3.68 4 3 C2.68 2.34 1.36 1.68 0 1 C0 0.67 0 0.34 0 0 Z " fill="#1E2225" transform="translate(343,71)"/>
<path d="M0 0 C3.91402949 1.26941497 5.79072873 2.51167694 8 6 C5 6 5 6 3.61328125 4.6875 C2.40885417 3.125 1.20442708 1.5625 0 0 Z " fill="#343236" transform="translate(165,62)"/>
<path d="M0 0 C2.01920337 1.30406884 4.01924973 2.63823419 6 4 C6 4.33 6 4.66 6 5 C3.69 5.33 1.38 5.66 -1 6 C-0.67 4.02 -0.34 2.04 0 0 Z " fill="#323D42" transform="translate(291,185)"/>
<path d="M0 0 C2 3 2 3 2 5 C1.01 5 0.02 5 -1 5 C-1 7.31 -1 9.62 -1 12 C-1.33 12 -1.66 12 -2 12 C-2.28571429 3.42857143 -2.28571429 3.42857143 0 0 Z " fill="#A4AAAB" transform="translate(369,152)"/>
<path d="M0 0 C1.98 0.66 3.96 1.32 6 2 C6 2.66 6 3.32 6 4 C4.02 4 2.04 4 0 4 C0 2.68 0 1.36 0 0 Z " fill="#D4D5D5" transform="translate(680,134)"/>
<path d="M0 0 C2.0625 0.4375 2.0625 0.4375 4 1 C3.01 2.485 3.01 2.485 2 4 C1.34 4 0.68 4 0 4 C-0.66 4.66 -1.32 5.32 -2 6 C-1.125 1.125 -1.125 1.125 0 0 Z " fill="#4C5355" transform="translate(721,85)"/>
<path d="M0 0 C1.98 0.495 1.98 0.495 4 1 C3.34 1 2.68 1 2 1 C1.34 3.64 0.68 6.28 0 9 C-0.33 9 -0.66 9 -1 9 C-1.125 2.25 -1.125 2.25 0 0 Z " fill="#505558" transform="translate(738,84)"/>
<path d="M0 0 C1.670625 0.061875 1.670625 0.061875 3.375 0.125 C1.6875 1.6875 1.6875 1.6875 -0.625 3.125 C-3.375 2.8125 -3.375 2.8125 -5.625 2.125 C-3.625 0.125 -3.625 0.125 0 0 Z " fill="#313B40" transform="translate(311.625,75.875)"/>
<path d="M0 0 C-1.98 0.33 -3.96 0.66 -6 1 C-6 1.66 -6 2.32 -6 3 C-6.99 3.33 -7.98 3.66 -9 4 C-9.66 3.34 -10.32 2.68 -11 2 C-3.57142857 -1.57142857 -3.57142857 -1.57142857 0 0 Z " fill="#4B3D35" transform="translate(96,47)"/>
</svg>
